<?xml version="1.0" encoding="utf-8"?>
<COLLADA xmlns="http://www.collada.org/2005/11/COLLADASchema" version="1.4.1" xmlns:xsi="http://www.w3.org/2001/XMLSchema-instance">
  <asset>
    <contributor>
      <author>Blender User</author>
      <authoring_tool>Blender 2.92.0 commit date:2021-02-24, commit time:16:25, hash:02948a2cab44</authoring_tool>
    </contributor>
    <created>2021-04-05T19:12:00</created>
    <modified>2021-04-05T19:12:00</modified>
    <unit name="meter" meter="1"/>
    <up_axis>Z_UP</up_axis>
  </asset>
  <library_images/>
  <library_geometries>
    <geometry id="Síť_018-mesh" name="Síť.018">
      <mesh>
        <source id="Síť_018-mesh-positions">
          <float_array id="Síť_018-mesh-positions-array" count="27">40 830 0 0 20 0 0 830 0 20 20 0 40 20 0 0 830 2080 0 20 2080 40 20 2080 40 830 2080</float_array>
          <technique_common>
            <accessor source="#Síť_018-mesh-positions-array" count="9" stride="3">
              <param name="X" type="float"/>
              <param name="Y" type="float"/>
              <param name="Z" type="float"/>
            </accessor>
          </technique_common>
        </source>
        <source id="Síť_018-mesh-normals">
          <float_array id="Síť_018-mesh-normals-array" count="18">0 0 -1 -1 0 0 0 -1 0 1 0 0 0 1 0 0 0 1</float_array>
          <technique_common>
            <accessor source="#Síť_018-mesh-normals-array" count="6" stride="3">
              <param name="X" type="float"/>
              <param name="Y" type="float"/>
              <param name="Z" type="float"/>
            </accessor>
          </technique_common>
        </source>
        <source id="Síť_018-mesh-map-0">
          <float_array id="Síť_018-mesh-map-0-array" count="84">-0.1725707 2.766667 0 0.06666666 0 2.766667 0 0.06666666 -0.1725707 2.766667 -0.08628529 0.06666666 -0.08628529 0.06666666 -0.1725707 2.766667 -0.1725707 0.06666666 -3.580842 6.933333 -0.08628529 0 -0.08628529 6.933333 -0.08628529 0 -3.580842 6.933333 -3.580842 0 0.1725707 6.933333 0.08628529 0 0.1725707 0 0.08628529 0 0.1725707 6.933333 0 0 0 0 0.1725707 6.933333 0 6.933333 3.580842 0 0.08628529 6.933333 0.08628529 0 0.08628529 6.933333 3.580842 0 3.580842 6.933333 0 6.933333 -0.1725707 0 0 0 -0.1725707 0 0 6.933333 -0.1725707 6.933333 0 0.06666666 0.1725707 2.766667 0 2.766667 0.1725707 2.766667 0 0.06666666 0.1725707 0.06666666</float_array>
          <technique_common>
            <accessor source="#Síť_018-mesh-map-0-array" count="42" stride="2">
              <param name="S" type="float"/>
              <param name="T" type="float"/>
            </accessor>
          </technique_common>
        </source>
        <source id="Síť_018-mesh-map-1">
          <float_array id="Síť_018-mesh-map-1-array" count="84">-0.1725707 2.766667 0 0.06666666 0 2.766667 0 0.06666666 -0.1725707 2.766667 -0.08628529 0.06666666 -0.08628529 0.06666666 -0.1725707 2.766667 -0.1725707 0.06666666 -3.580842 6.933333 -0.08628529 0 -0.08628529 6.933333 -0.08628529 0 -3.580842 6.933333 -3.580842 0 0.1725707 6.933333 0.08628529 0 0.1725707 0 0.08628529 0 0.1725707 6.933333 0 0 0 0 0.1725707 6.933333 0 6.933333 3.580842 0 0.08628529 6.933333 0.08628529 0 0.08628529 6.933333 3.580842 0 3.580842 6.933333 0 6.933333 -0.1725707 0 0 0 -0.1725707 0 0 6.933333 -0.1725707 6.933333 0 0.06666666 0.1725707 2.766667 0 2.766667 0.1725707 2.766667 0 0.06666666 0.1725707 0.06666666</float_array>
          <technique_common>
            <accessor source="#Síť_018-mesh-map-1-array" count="42" stride="2">
              <param name="S" type="float"/>
              <param name="T" type="float"/>
            </accessor>
          </technique_common>
        </source>
        <vertices id="Síť_018-mesh-vertices">
          <input semantic="POSITION" source="#Síť_018-mesh-positions"/>
        </vertices>
        <triangles count="14">
          <input semantic="VERTEX" source="#Síť_018-mesh-vertices" offset="0"/>
          <input semantic="NORMAL" source="#Síť_018-mesh-normals" offset="1"/>
          <input semantic="TEXCOORD" source="#Síť_018-mesh-map-0" offset="2" set="0"/>
          <input semantic="TEXCOORD" source="#Síť_018-mesh-map-1" offset="2" set="1"/>
          <p>0 0 0 1 0 1 2 0 2 1 0 3 0 0 4 3 0 5 3 0 6 0 0 7 4 0 8 5 1 9 1 1 10 6 1 11 1 1 12 5 1 13 2 1 14 7 2 15 3 2 16 4 2 17 3 2 18 7 2 19 1 2 20 1 2 21 7 2 22 6 2 23 0 3 24 7 3 25 4 3 26 7 3 27 0 3 28 8 3 29 5 4 30 0 4 31 2 4 32 0 4 33 5 4 34 8 4 35 6 5 36 8 5 37 5 5 38 8 5 39 6 5 40 7 5 41</p>
        </triangles>
      </mesh>
    </geometry>
    <geometry id="Cube_137-mesh" name="Cube.137">
      <mesh>
        <source id="Cube_137-mesh-positions">
          <float_array id="Cube_137-mesh-positions-array" count="48">1 1 1 1 1 -1 1 -1 1 1 -1 -1 -1 1 1 -1 1 -1 -1 -1 1 -1 -1 -1 -1 0.9128698 0.9047017 1 0.9128698 0.9047017 -1 -0.9128698 0.9047017 1 -0.9128698 0.9047017 -1 -0.9128698 -0.9047017 1 -0.9128698 -0.9047017 1 0.9128698 -0.9047017 -1 0.9128698 -0.9047017</float_array>
          <technique_common>
            <accessor source="#Cube_137-mesh-positions-array" count="16" stride="3">
              <param name="X" type="float"/>
              <param name="Y" type="float"/>
              <param name="Z" type="float"/>
            </accessor>
          </technique_common>
        </source>
        <source id="Cube_137-mesh-normals">
          <float_array id="Cube_137-mesh-normals-array" count="36">0 0 1 0 -1 0 0 0 -1 0 1 0 -1 6.84087e-7 0 -1 0 0 1 0 0 1 -6.84087e-7 0 -1 -1.51229e-6 0 -1 1.51229e-6 0 1 -1.51229e-6 0 1 1.51229e-6 0</float_array>
          <technique_common>
            <accessor source="#Cube_137-mesh-normals-array" count="12" stride="3">
              <param name="X" type="float"/>
              <param name="Y" type="float"/>
              <param name="Z" type="float"/>
            </accessor>
          </technique_common>
        </source>
        <source id="Cube_137-mesh-map-0">
          <float_array id="Cube_137-mesh-map-0-array" count="192">0.875 0.5 0.625 0.75 0.625 0.5 0.625 0.75 0.375 1 0.375 0.75 0.375 0.5 0.125 0.75 0.125 0.5 0.625 0.25 0.375 0.5 0.375 0.25 0.6595737 0.5 0.8404263 0.75 0.8404263 0.5 0.625 0.7845738 0.375 0.9654263 0.625 0.9654263 0.1595737 0.5 0.3404263 0.75 0.3404263 0.5 0.625 0.2845737 0.375 0.4654263 0.625 0.4654263 0.375 0.25 0.6130877 0.2391087 0.625 0.25 0.375 0 0.625 0 0.3869122 0.01089125 0.375 0.5 0.625 0.5 0.3869122 0.5108913 0.375 0.75 0.6130877 0.7391088 0.625 0.75 0.875 0.5 0.875 0.75 0.625 0.75 0.625 0.75 0.625 1 0.375 1 0.375 0.5 0.375 0.75 0.125 0.75 0.625 0.25 0.625 0.5 0.375 0.5 0.6595737 0.5 0.6595737 0.75 0.8404263 0.75 0.625 0.7845738 0.375 0.7845737 0.375 0.9654263 0.1595737 0.5 0.1595737 0.75 0.3404263 0.75 0.625 0.2845737 0.375 0.2845737 0.375 0.4654263 0.375 0.25 0.3869122 0.2391087 0.6130877 0.2391087 0.3869122 0.2391087 0.375 0.25 0.375 0 0.625 0 0.625 0.25 0.6130877 0.01089125 0.625 0.25 0.6130877 0.2391087 0.6130877 0.01089125 0.3869122 0.01089125 0.3869122 0.2391087 0.375 0 0.625 0 0.6130877 0.01089125 0.3869122 0.01089125 0.3869122 0.5108913 0.3869122 0.7391086 0.375 0.75 0.625 0.5 0.625 0.75 0.6130877 0.5108913 0.625 0.75 0.6130877 0.7391088 0.6130877 0.5108913 0.3869122 0.5108913 0.375 0.75 0.375 0.5 0.625 0.5 0.6130877 0.5108913 0.3869122 0.5108913 0.375 0.75 0.3869122 0.7391086 0.6130877 0.7391088</float_array>
          <technique_common>
            <accessor source="#Cube_137-mesh-map-0-array" count="96" stride="2">
              <param name="S" type="float"/>
              <param name="T" type="float"/>
            </accessor>
          </technique_common>
        </source>
        <vertices id="Cube_137-mesh-vertices">
          <input semantic="POSITION" source="#Cube_137-mesh-positions"/>
        </vertices>
        <triangles count="32">
          <input semantic="VERTEX" source="#Cube_137-mesh-vertices" offset="0"/>
          <input semantic="NORMAL" source="#Cube_137-mesh-normals" offset="1"/>
          <input semantic="TEXCOORD" source="#Cube_137-mesh-map-0" offset="2" set="0"/>
          <p>4 0 0 2 0 1 0 0 2 2 1 3 7 1 4 3 1 5 1 2 6 7 2 7 5 2 8 4 3 9 1 3 10 5 3 11 9 2 12 10 2 13 8 2 14 11 3 15 12 3 16 10 3 17 15 0 18 13 0 19 14 0 20 8 1 21 14 1 22 9 1 23 5 4 24 8 4 25 4 4 26 7 5 27 6 5 28 12 5 29 1 6 30 0 6 31 14 6 32 3 7 33 11 7 34 2 7 35 4 0 36 6 0 37 2 0 38 2 1 39 6 1 40 7 1 41 1 2 42 3 2 43 7 2 44 4 3 45 0 3 46 1 3 47 9 2 48 11 2 49 10 2 50 11 3 51 13 3 52 12 3 53 15 0 54 12 0 55 13 0 56 8 1 57 15 1 58 14 1 59 5 8 60 15 8 61 8 8 62 15 5 63 5 5 64 7 5 65 6 5 66 4 5 67 10 5 68 4 5 69 8 5 70 10 5 71 12 5 72 15 5 73 7 5 74 6 9 75 10 9 76 12 9 77 14 6 78 13 6 79 3 6 80 0 6 81 2 6 82 9 6 83 2 6 84 11 6 85 9 6 86 14 6 87 3 6 88 1 6 89 0 10 90 9 10 91 14 10 92 3 11 93 13 11 94 11 11 95</p>
        </triangles>
      </mesh>
    </geometry>
    <geometry id="Cube_135-mesh" name="Cube.135">
      <mesh>
        <source id="Cube_135-mesh-positions">
          <float_array id="Cube_135-mesh-positions-array" count="48">1 1 1 1 1 -1 1 -1 1 1 -1 -1 -1 1 1 -1 1 -1 -1 -1 1 -1 -1 -1 -1 0.9128698 0.9047017 1 0.9128698 0.9047017 -1 -0.9128698 0.9047017 1 -0.9128698 0.9047017 -1 -0.9128698 -0.9047017 1 -0.9128698 -0.9047017 1 0.9128698 -0.9047017 -1 0.9128698 -0.9047017</float_array>
          <technique_common>
            <accessor source="#Cube_135-mesh-positions-array" count="16" stride="3">
              <param name="X" type="float"/>
              <param name="Y" type="float"/>
              <param name="Z" type="float"/>
            </accessor>
          </technique_common>
        </source>
        <source id="Cube_135-mesh-normals">
          <float_array id="Cube_135-mesh-normals-array" count="36">0 0 1 0 -1 0 0 0 -1 0 1 0 -1 6.84087e-7 0 -1 0 0 1 0 0 1 -6.84087e-7 0 -1 -1.51229e-6 0 -1 1.51229e-6 0 1 -1.51229e-6 0 1 1.51229e-6 0</float_array>
          <technique_common>
            <accessor source="#Cube_135-mesh-normals-array" count="12" stride="3">
              <param name="X" type="float"/>
              <param name="Y" type="float"/>
              <param name="Z" type="float"/>
            </accessor>
          </technique_common>
        </source>
        <source id="Cube_135-mesh-map-0">
          <float_array id="Cube_135-mesh-map-0-array" count="192">0.875 0.5 0.625 0.75 0.625 0.5 0.625 0.75 0.375 1 0.375 0.75 0.375 0.5 0.125 0.75 0.125 0.5 0.625 0.25 0.375 0.5 0.375 0.25 0.6595737 0.5 0.8404263 0.75 0.8404263 0.5 0.625 0.7845738 0.375 0.9654263 0.625 0.9654263 0.1595737 0.5 0.3404263 0.75 0.3404263 0.5 0.625 0.2845737 0.375 0.4654263 0.625 0.4654263 0.375 0.25 0.6130877 0.2391087 0.625 0.25 0.375 0 0.625 0 0.3869122 0.01089125 0.375 0.5 0.625 0.5 0.3869122 0.5108913 0.375 0.75 0.6130877 0.7391088 0.625 0.75 0.875 0.5 0.875 0.75 0.625 0.75 0.625 0.75 0.625 1 0.375 1 0.375 0.5 0.375 0.75 0.125 0.75 0.625 0.25 0.625 0.5 0.375 0.5 0.6595737 0.5 0.6595737 0.75 0.8404263 0.75 0.625 0.7845738 0.375 0.7845737 0.375 0.9654263 0.1595737 0.5 0.1595737 0.75 0.3404263 0.75 0.625 0.2845737 0.375 0.2845737 0.375 0.4654263 0.375 0.25 0.3869122 0.2391087 0.6130877 0.2391087 0.3869122 0.2391087 0.375 0.25 0.375 0 0.625 0 0.625 0.25 0.6130877 0.01089125 0.625 0.25 0.6130877 0.2391087 0.6130877 0.01089125 0.3869122 0.01089125 0.3869122 0.2391087 0.375 0 0.625 0 0.6130877 0.01089125 0.3869122 0.01089125 0.3869122 0.5108913 0.3869122 0.7391086 0.375 0.75 0.625 0.5 0.625 0.75 0.6130877 0.5108913 0.625 0.75 0.6130877 0.7391088 0.6130877 0.5108913 0.3869122 0.5108913 0.375 0.75 0.375 0.5 0.625 0.5 0.6130877 0.5108913 0.3869122 0.5108913 0.375 0.75 0.3869122 0.7391086 0.6130877 0.7391088</float_array>
          <technique_common>
            <accessor source="#Cube_135-mesh-map-0-array" count="96" stride="2">
              <param name="S" type="float"/>
              <param name="T" type="float"/>
            </accessor>
          </technique_common>
        </source>
        <vertices id="Cube_135-mesh-vertices">
          <input semantic="POSITION" source="#Cube_135-mesh-positions"/>
        </vertices>
        <triangles count="32">
          <input semantic="VERTEX" source="#Cube_135-mesh-vertices" offset="0"/>
          <input semantic="NORMAL" source="#Cube_135-mesh-normals" offset="1"/>
          <input semantic="TEXCOORD" source="#Cube_135-mesh-map-0" offset="2" set="0"/>
          <p>4 0 0 2 0 1 0 0 2 2 1 3 7 1 4 3 1 5 1 2 6 7 2 7 5 2 8 4 3 9 1 3 10 5 3 11 9 2 12 10 2 13 8 2 14 11 3 15 12 3 16 10 3 17 15 0 18 13 0 19 14 0 20 8 1 21 14 1 22 9 1 23 5 4 24 8 4 25 4 4 26 7 5 27 6 5 28 12 5 29 1 6 30 0 6 31 14 6 32 3 7 33 11 7 34 2 7 35 4 0 36 6 0 37 2 0 38 2 1 39 6 1 40 7 1 41 1 2 42 3 2 43 7 2 44 4 3 45 0 3 46 1 3 47 9 2 48 11 2 49 10 2 50 11 3 51 13 3 52 12 3 53 15 0 54 12 0 55 13 0 56 8 1 57 15 1 58 14 1 59 5 8 60 15 8 61 8 8 62 15 5 63 5 5 64 7 5 65 6 5 66 4 5 67 10 5 68 4 5 69 8 5 70 10 5 71 12 5 72 15 5 73 7 5 74 6 9 75 10 9 76 12 9 77 14 6 78 13 6 79 3 6 80 0 6 81 2 6 82 9 6 83 2 6 84 11 6 85 9 6 86 14 6 87 3 6 88 1 6 89 0 10 90 9 10 91 14 10 92 3 11 93 13 11 94 11 11 95</p>
        </triangles>
      </mesh>
    </geometry>
    <geometry id="Cube_138-mesh" name="Cube.138">
      <mesh>
        <source id="Cube_138-mesh-positions">
          <float_array id="Cube_138-mesh-positions-array" count="48">1 1 1 1 1 -1 1 -1 1 1 -1 -1 -1 1 1 -1 1 -1 -1 -1 1 -1 -1 -1 -1 0.9128698 0.9047017 1 0.9128698 0.9047017 -1 -0.9128698 0.9047017 1 -0.9128698 0.9047017 -1 -0.9128698 -0.9047017 1 -0.9128698 -0.9047017 1 0.9128698 -0.9047017 -1 0.9128698 -0.9047017</float_array>
          <technique_common>
            <accessor source="#Cube_138-mesh-positions-array" count="16" stride="3">
              <param name="X" type="float"/>
              <param name="Y" type="float"/>
              <param name="Z" type="float"/>
            </accessor>
          </technique_common>
        </source>
        <source id="Cube_138-mesh-normals">
          <float_array id="Cube_138-mesh-normals-array" count="36">0 0 1 0 -1 0 0 0 -1 0 1 0 -1 6.84087e-7 0 -1 0 0 1 0 0 1 -6.84087e-7 0 -1 -1.51229e-6 0 -1 1.51229e-6 0 1 -1.51229e-6 0 1 1.51229e-6 0</float_array>
          <technique_common>
            <accessor source="#Cube_138-mesh-normals-array" count="12" stride="3">
              <param name="X" type="float"/>
              <param name="Y" type="float"/>
              <param name="Z" type="float"/>
            </accessor>
          </technique_common>
        </source>
        <source id="Cube_138-mesh-map-0">
          <float_array id="Cube_138-mesh-map-0-array" count="192">0.875 0.5 0.625 0.75 0.625 0.5 0.625 0.75 0.375 1 0.375 0.75 0.375 0.5 0.125 0.75 0.125 0.5 0.625 0.25 0.375 0.5 0.375 0.25 0.6595737 0.5 0.8404263 0.75 0.8404263 0.5 0.625 0.7845738 0.375 0.9654263 0.625 0.9654263 0.1595737 0.5 0.3404263 0.75 0.3404263 0.5 0.625 0.2845737 0.375 0.4654263 0.625 0.4654263 0.375 0.25 0.6130877 0.2391087 0.625 0.25 0.375 0 0.625 0 0.3869122 0.01089125 0.375 0.5 0.625 0.5 0.3869122 0.5108913 0.375 0.75 0.6130877 0.7391088 0.625 0.75 0.875 0.5 0.875 0.75 0.625 0.75 0.625 0.75 0.625 1 0.375 1 0.375 0.5 0.375 0.75 0.125 0.75 0.625 0.25 0.625 0.5 0.375 0.5 0.6595737 0.5 0.6595737 0.75 0.8404263 0.75 0.625 0.7845738 0.375 0.7845737 0.375 0.9654263 0.1595737 0.5 0.1595737 0.75 0.3404263 0.75 0.625 0.2845737 0.375 0.2845737 0.375 0.4654263 0.375 0.25 0.3869122 0.2391087 0.6130877 0.2391087 0.3869122 0.2391087 0.375 0.25 0.375 0 0.625 0 0.625 0.25 0.6130877 0.01089125 0.625 0.25 0.6130877 0.2391087 0.6130877 0.01089125 0.3869122 0.01089125 0.3869122 0.2391087 0.375 0 0.625 0 0.6130877 0.01089125 0.3869122 0.01089125 0.3869122 0.5108913 0.3869122 0.7391086 0.375 0.75 0.625 0.5 0.625 0.75 0.6130877 0.5108913 0.625 0.75 0.6130877 0.7391088 0.6130877 0.5108913 0.3869122 0.5108913 0.375 0.75 0.375 0.5 0.625 0.5 0.6130877 0.5108913 0.3869122 0.5108913 0.375 0.75 0.3869122 0.7391086 0.6130877 0.7391088</float_array>
          <technique_common>
            <accessor source="#Cube_138-mesh-map-0-array" count="96" stride="2">
              <param name="S" type="float"/>
              <param name="T" type="float"/>
            </accessor>
          </technique_common>
        </source>
        <vertices id="Cube_138-mesh-vertices">
          <input semantic="POSITION" source="#Cube_138-mesh-positions"/>
        </vertices>
        <triangles count="32">
          <input semantic="VERTEX" source="#Cube_138-mesh-vertices" offset="0"/>
          <input semantic="NORMAL" source="#Cube_138-mesh-normals" offset="1"/>
          <input semantic="TEXCOORD" source="#Cube_138-mesh-map-0" offset="2" set="0"/>
          <p>4 0 0 2 0 1 0 0 2 2 1 3 7 1 4 3 1 5 1 2 6 7 2 7 5 2 8 4 3 9 1 3 10 5 3 11 9 2 12 10 2 13 8 2 14 11 3 15 12 3 16 10 3 17 15 0 18 13 0 19 14 0 20 8 1 21 14 1 22 9 1 23 5 4 24 8 4 25 4 4 26 7 5 27 6 5 28 12 5 29 1 6 30 0 6 31 14 6 32 3 7 33 11 7 34 2 7 35 4 0 36 6 0 37 2 0 38 2 1 39 6 1 40 7 1 41 1 2 42 3 2 43 7 2 44 4 3 45 0 3 46 1 3 47 9 2 48 11 2 49 10 2 50 11 3 51 13 3 52 12 3 53 15 0 54 12 0 55 13 0 56 8 1 57 15 1 58 14 1 59 5 8 60 15 8 61 8 8 62 15 5 63 5 5 64 7 5 65 6 5 66 4 5 67 10 5 68 4 5 69 8 5 70 10 5 71 12 5 72 15 5 73 7 5 74 6 9 75 10 9 76 12 9 77 14 6 78 13 6 79 3 6 80 0 6 81 2 6 82 9 6 83 2 6 84 11 6 85 9 6 86 14 6 87 3 6 88 1 6 89 0 10 90 9 10 91 14 10 92 3 11 93 13 11 94 11 11 95</p>
        </triangles>
      </mesh>
    </geometry>
    <geometry id="Cube_033-mesh" name="Cube.033">
      <mesh>
        <source id="Cube_033-mesh-positions">
          <float_array id="Cube_033-mesh-positions-array" count="48">1 1 1 1 1 -1 1 -1 1 1 -1 -1 -1 1 1 -1 1 -1 -1 -1 1 -1 -1 -1 -1 0.9128698 0.9047017 1 0.9128698 0.9047017 -1 -0.9128698 0.9047017 1 -0.9128698 0.9047017 -1 -0.9128698 -0.9047017 1 -0.9128698 -0.9047017 1 0.9128698 -0.9047017 -1 0.9128698 -0.9047017</float_array>
          <technique_common>
            <accessor source="#Cube_033-mesh-positions-array" count="16" stride="3">
              <param name="X" type="float"/>
              <param name="Y" type="float"/>
              <param name="Z" type="float"/>
            </accessor>
          </technique_common>
        </source>
        <source id="Cube_033-mesh-normals">
          <float_array id="Cube_033-mesh-normals-array" count="36">0 0 1 0 -1 0 0 0 -1 0 1 0 -1 6.84087e-7 0 -1 0 0 1 0 0 1 -6.84087e-7 0 -1 -1.51229e-6 0 -1 1.51229e-6 0 1 -1.51229e-6 0 1 1.51229e-6 0</float_array>
          <technique_common>
            <accessor source="#Cube_033-mesh-normals-array" count="12" stride="3">
              <param name="X" type="float"/>
              <param name="Y" type="float"/>
              <param name="Z" type="float"/>
            </accessor>
          </technique_common>
        </source>
        <source id="Cube_033-mesh-map-0">
          <float_array id="Cube_033-mesh-map-0-array" count="192">0.875 0.5 0.625 0.75 0.625 0.5 0.625 0.75 0.375 1 0.375 0.75 0.375 0.5 0.125 0.75 0.125 0.5 0.625 0.25 0.375 0.5 0.375 0.25 0.6595737 0.5 0.8404263 0.75 0.8404263 0.5 0.625 0.7845738 0.375 0.9654263 0.625 0.9654263 0.1595737 0.5 0.3404263 0.75 0.3404263 0.5 0.625 0.2845737 0.375 0.4654263 0.625 0.4654263 0.375 0.25 0.6130877 0.2391087 0.625 0.25 0.375 0 0.625 0 0.3869122 0.01089125 0.375 0.5 0.625 0.5 0.3869122 0.5108913 0.375 0.75 0.6130877 0.7391088 0.625 0.75 0.875 0.5 0.875 0.75 0.625 0.75 0.625 0.75 0.625 1 0.375 1 0.375 0.5 0.375 0.75 0.125 0.75 0.625 0.25 0.625 0.5 0.375 0.5 0.6595737 0.5 0.6595737 0.75 0.8404263 0.75 0.625 0.7845738 0.375 0.7845737 0.375 0.9654263 0.1595737 0.5 0.1595737 0.75 0.3404263 0.75 0.625 0.2845737 0.375 0.2845737 0.375 0.4654263 0.375 0.25 0.3869122 0.2391087 0.6130877 0.2391087 0.3869122 0.2391087 0.375 0.25 0.375 0 0.625 0 0.625 0.25 0.6130877 0.01089125 0.625 0.25 0.6130877 0.2391087 0.6130877 0.01089125 0.3869122 0.01089125 0.3869122 0.2391087 0.375 0 0.625 0 0.6130877 0.01089125 0.3869122 0.01089125 0.3869122 0.5108913 0.3869122 0.7391086 0.375 0.75 0.625 0.5 0.625 0.75 0.6130877 0.5108913 0.625 0.75 0.6130877 0.7391088 0.6130877 0.5108913 0.3869122 0.5108913 0.375 0.75 0.375 0.5 0.625 0.5 0.6130877 0.5108913 0.3869122 0.5108913 0.375 0.75 0.3869122 0.7391086 0.6130877 0.7391088</float_array>
          <technique_common>
            <accessor source="#Cube_033-mesh-map-0-array" count="96" stride="2">
              <param name="S" type="float"/>
              <param name="T" type="float"/>
            </accessor>
          </technique_common>
        </source>
        <vertices id="Cube_033-mesh-vertices">
          <input semantic="POSITION" source="#Cube_033-mesh-positions"/>
        </vertices>
        <triangles count="32">
          <input semantic="VERTEX" source="#Cube_033-mesh-vertices" offset="0"/>
          <input semantic="NORMAL" source="#Cube_033-mesh-normals" offset="1"/>
          <input semantic="TEXCOORD" source="#Cube_033-mesh-map-0" offset="2" set="0"/>
          <p>4 0 0 2 0 1 0 0 2 2 1 3 7 1 4 3 1 5 1 2 6 7 2 7 5 2 8 4 3 9 1 3 10 5 3 11 9 2 12 10 2 13 8 2 14 11 3 15 12 3 16 10 3 17 15 0 18 13 0 19 14 0 20 8 1 21 14 1 22 9 1 23 5 4 24 8 4 25 4 4 26 7 5 27 6 5 28 12 5 29 1 6 30 0 6 31 14 6 32 3 7 33 11 7 34 2 7 35 4 0 36 6 0 37 2 0 38 2 1 39 6 1 40 7 1 41 1 2 42 3 2 43 7 2 44 4 3 45 0 3 46 1 3 47 9 2 48 11 2 49 10 2 50 11 3 51 13 3 52 12 3 53 15 0 54 12 0 55 13 0 56 8 1 57 15 1 58 14 1 59 5 8 60 15 8 61 8 8 62 15 5 63 5 5 64 7 5 65 6 5 66 4 5 67 10 5 68 4 5 69 8 5 70 10 5 71 12 5 72 15 5 73 7 5 74 6 9 75 10 9 76 12 9 77 14 6 78 13 6 79 3 6 80 0 6 81 2 6 82 9 6 83 2 6 84 11 6 85 9 6 86 14 6 87 3 6 88 1 6 89 0 10 90 9 10 91 14 10 92 3 11 93 13 11 94 11 11 95</p>
        </triangles>
      </mesh>
    </geometry>
  </library_geometries>
  <library_visual_scenes>
    <visual_scene id="Scene" name="Scene">
      <node id="Group_4_001_001" name="Group#4_001.001" type="NODE">
        <matrix sid="transform">1.19249e-11 8.69122e-4 0 1.149316 -0.001 1.03642e-11 -4.14787e-11 2.98607 -4.37114e-11 0 9.48923e-4 0.004999995 0 0 0 1</matrix>
        <instance_geometry url="#Síť_018-mesh" name="Group#4_001.001"/>
      </node>
      <node id="Cube_074" name="Cube.074" type="NODE">
        <matrix sid="transform">0.0361705 0 0 7.461829 0 0.425 0 2.033563 0 0 0.425 1.441059 0 0 0 1</matrix>
        <instance_geometry url="#Cube_137-mesh" name="Cube.074"/>
      </node>
      <node id="Cube_072" name="Cube.072" type="NODE">
        <matrix sid="transform">0.0361705 0 0 7.461829 0 0.425 0 1.128595 0 0 0.425 1.441059 0 0 0 1</matrix>
        <instance_geometry url="#Cube_135-mesh" name="Cube.072"/>
      </node>
      <node id="Cube_069" name="Cube.069" type="NODE">
        <matrix sid="transform">-1.58106e-9 -0.562165 0 3.63412 0.0361705 -2.4573e-8 0 2.95383 0 0 0.51398 1.53004 0 0 0 1</matrix>
        <instance_geometry url="#Cube_138-mesh" name="Cube.069"/>
      </node>
      <node id="Cube_068" name="Cube.068" type="NODE">
        <matrix sid="transform">-1.58106e-9 0.612165 0 5.909131 -0.0361705 -2.67586e-8 0 2.95383 0 0 0.51398 1.53004 0 0 0 1</matrix>
        <instance_geometry url="#Cube_033-mesh" name="Cube.068"/>
      </node>
    </visual_scene>
  </library_visual_scenes>
  <scene>
    <instance_visual_scene url="#Scene"/>
  </scene>
</COLLADA>