<?xml version="1.0" encoding="utf-8"?>
<COLLADA xmlns="http://www.collada.org/2005/11/COLLADASchema" version="1.4.1" xmlns:xsi="http://www.w3.org/2001/XMLSchema-instance">
  <asset>
    <contributor>
      <author>Blender User</author>
      <authoring_tool>Blender 2.92.0 commit date:2021-02-24, commit time:16:25, hash:02948a2cab44</authoring_tool>
    </contributor>
    <created>2021-04-05T19:31:56</created>
    <modified>2021-04-05T19:31:56</modified>
    <unit name="meter" meter="1"/>
    <up_axis>Z_UP</up_axis>
  </asset>
  <library_images/>
  <library_geometries>
    <geometry id="Cube_156-mesh" name="Cube.156">
      <mesh>
        <source id="Cube_156-mesh-positions">
          <float_array id="Cube_156-mesh-positions-array" count="48">1 1 1 1 1 -1 1 -1 1 1 -1 -1 -1 1 1 -1 1 -1 -1 -1 1 -1 -1 -1 -1 0.9128698 0.9047017 1 0.9128698 0.9047017 -1 -0.9128698 0.9047017 1 -0.9128698 0.9047017 -1 -0.9128698 -0.9047017 1 -0.9128698 -0.9047017 1 0.9128698 -0.9047017 -1 0.9128698 -0.9047017</float_array>
          <technique_common>
            <accessor source="#Cube_156-mesh-positions-array" count="16" stride="3">
              <param name="X" type="float"/>
              <param name="Y" type="float"/>
              <param name="Z" type="float"/>
            </accessor>
          </technique_common>
        </source>
        <source id="Cube_156-mesh-normals">
          <float_array id="Cube_156-mesh-normals-array" count="36">0 0 1 0 -1 0 0 0 -1 0 1 0 -1 6.84087e-7 0 -1 0 0 1 0 0 1 -6.84087e-7 0 -1 -1.51229e-6 0 -1 1.51229e-6 0 1 -1.51229e-6 0 1 1.51229e-6 0</float_array>
          <technique_common>
            <accessor source="#Cube_156-mesh-normals-array" count="12" stride="3">
              <param name="X" type="float"/>
              <param name="Y" type="float"/>
              <param name="Z" type="float"/>
            </accessor>
          </technique_common>
        </source>
        <source id="Cube_156-mesh-map-0">
          <float_array id="Cube_156-mesh-map-0-array" count="192">0.875 0.5 0.625 0.75 0.625 0.5 0.625 0.75 0.375 1 0.375 0.75 0.375 0.5 0.125 0.75 0.125 0.5 0.625 0.25 0.375 0.5 0.375 0.25 0.6595737 0.5 0.8404263 0.75 0.8404263 0.5 0.625 0.7845738 0.375 0.9654263 0.625 0.9654263 0.1595737 0.5 0.3404263 0.75 0.3404263 0.5 0.625 0.2845737 0.375 0.4654263 0.625 0.4654263 0.375 0.25 0.6130877 0.2391087 0.625 0.25 0.375 0 0.625 0 0.3869122 0.01089125 0.375 0.5 0.625 0.5 0.3869122 0.5108913 0.375 0.75 0.6130877 0.7391088 0.625 0.75 0.875 0.5 0.875 0.75 0.625 0.75 0.625 0.75 0.625 1 0.375 1 0.375 0.5 0.375 0.75 0.125 0.75 0.625 0.25 0.625 0.5 0.375 0.5 0.6595737 0.5 0.6595737 0.75 0.8404263 0.75 0.625 0.7845738 0.375 0.7845737 0.375 0.9654263 0.1595737 0.5 0.1595737 0.75 0.3404263 0.75 0.625 0.2845737 0.375 0.2845737 0.375 0.4654263 0.375 0.25 0.3869122 0.2391087 0.6130877 0.2391087 0.3869122 0.2391087 0.375 0.25 0.375 0 0.625 0 0.625 0.25 0.6130877 0.01089125 0.625 0.25 0.6130877 0.2391087 0.6130877 0.01089125 0.3869122 0.01089125 0.3869122 0.2391087 0.375 0 0.625 0 0.6130877 0.01089125 0.3869122 0.01089125 0.3869122 0.5108913 0.3869122 0.7391086 0.375 0.75 0.625 0.5 0.625 0.75 0.6130877 0.5108913 0.625 0.75 0.6130877 0.7391088 0.6130877 0.5108913 0.3869122 0.5108913 0.375 0.75 0.375 0.5 0.625 0.5 0.6130877 0.5108913 0.3869122 0.5108913 0.375 0.75 0.3869122 0.7391086 0.6130877 0.7391088</float_array>
          <technique_common>
            <accessor source="#Cube_156-mesh-map-0-array" count="96" stride="2">
              <param name="S" type="float"/>
              <param name="T" type="float"/>
            </accessor>
          </technique_common>
        </source>
        <vertices id="Cube_156-mesh-vertices">
          <input semantic="POSITION" source="#Cube_156-mesh-positions"/>
        </vertices>
        <triangles count="32">
          <input semantic="VERTEX" source="#Cube_156-mesh-vertices" offset="0"/>
          <input semantic="NORMAL" source="#Cube_156-mesh-normals" offset="1"/>
          <input semantic="TEXCOORD" source="#Cube_156-mesh-map-0" offset="2" set="0"/>
          <p>4 0 0 2 0 1 0 0 2 2 1 3 7 1 4 3 1 5 1 2 6 7 2 7 5 2 8 4 3 9 1 3 10 5 3 11 9 2 12 10 2 13 8 2 14 11 3 15 12 3 16 10 3 17 15 0 18 13 0 19 14 0 20 8 1 21 14 1 22 9 1 23 5 4 24 8 4 25 4 4 26 7 5 27 6 5 28 12 5 29 1 6 30 0 6 31 14 6 32 3 7 33 11 7 34 2 7 35 4 0 36 6 0 37 2 0 38 2 1 39 6 1 40 7 1 41 1 2 42 3 2 43 7 2 44 4 3 45 0 3 46 1 3 47 9 2 48 11 2 49 10 2 50 11 3 51 13 3 52 12 3 53 15 0 54 12 0 55 13 0 56 8 1 57 15 1 58 14 1 59 5 8 60 15 8 61 8 8 62 15 5 63 5 5 64 7 5 65 6 5 66 4 5 67 10 5 68 4 5 69 8 5 70 10 5 71 12 5 72 15 5 73 7 5 74 6 9 75 10 9 76 12 9 77 14 6 78 13 6 79 3 6 80 0 6 81 2 6 82 9 6 83 2 6 84 11 6 85 9 6 86 14 6 87 3 6 88 1 6 89 0 10 90 9 10 91 14 10 92 3 11 93 13 11 94 11 11 95</p>
        </triangles>
      </mesh>
    </geometry>
    <geometry id="Cube_155-mesh" name="Cube.155">
      <mesh>
        <source id="Cube_155-mesh-positions">
          <float_array id="Cube_155-mesh-positions-array" count="48">1 1 1 1 1 -1 1 -1 1 1 -1 -1 -1 1 1 -1 1 -1 -1 -1 1 -1 -1 -1 -1 0.9128698 0.9047017 1 0.9128698 0.9047017 -1 -0.9128698 0.9047017 1 -0.9128698 0.9047017 -1 -0.9128698 -0.9047017 1 -0.9128698 -0.9047017 1 0.9128698 -0.9047017 -1 0.9128698 -0.9047017</float_array>
          <technique_common>
            <accessor source="#Cube_155-mesh-positions-array" count="16" stride="3">
              <param name="X" type="float"/>
              <param name="Y" type="float"/>
              <param name="Z" type="float"/>
            </accessor>
          </technique_common>
        </source>
        <source id="Cube_155-mesh-normals">
          <float_array id="Cube_155-mesh-normals-array" count="36">0 0 1 0 -1 0 0 0 -1 0 1 0 -1 6.84087e-7 0 -1 0 0 1 0 0 1 -6.84087e-7 0 -1 -1.51229e-6 0 -1 1.51229e-6 0 1 -1.51229e-6 0 1 1.51229e-6 0</float_array>
          <technique_common>
            <accessor source="#Cube_155-mesh-normals-array" count="12" stride="3">
              <param name="X" type="float"/>
              <param name="Y" type="float"/>
              <param name="Z" type="float"/>
            </accessor>
          </technique_common>
        </source>
        <source id="Cube_155-mesh-map-0">
          <float_array id="Cube_155-mesh-map-0-array" count="192">0.875 0.5 0.625 0.75 0.625 0.5 0.625 0.75 0.375 1 0.375 0.75 0.375 0.5 0.125 0.75 0.125 0.5 0.625 0.25 0.375 0.5 0.375 0.25 0.6595737 0.5 0.8404263 0.75 0.8404263 0.5 0.625 0.7845738 0.375 0.9654263 0.625 0.9654263 0.1595737 0.5 0.3404263 0.75 0.3404263 0.5 0.625 0.2845737 0.375 0.4654263 0.625 0.4654263 0.375 0.25 0.6130877 0.2391087 0.625 0.25 0.375 0 0.625 0 0.3869122 0.01089125 0.375 0.5 0.625 0.5 0.3869122 0.5108913 0.375 0.75 0.6130877 0.7391088 0.625 0.75 0.875 0.5 0.875 0.75 0.625 0.75 0.625 0.75 0.625 1 0.375 1 0.375 0.5 0.375 0.75 0.125 0.75 0.625 0.25 0.625 0.5 0.375 0.5 0.6595737 0.5 0.6595737 0.75 0.8404263 0.75 0.625 0.7845738 0.375 0.7845737 0.375 0.9654263 0.1595737 0.5 0.1595737 0.75 0.3404263 0.75 0.625 0.2845737 0.375 0.2845737 0.375 0.4654263 0.375 0.25 0.3869122 0.2391087 0.6130877 0.2391087 0.3869122 0.2391087 0.375 0.25 0.375 0 0.625 0 0.625 0.25 0.6130877 0.01089125 0.625 0.25 0.6130877 0.2391087 0.6130877 0.01089125 0.3869122 0.01089125 0.3869122 0.2391087 0.375 0 0.625 0 0.6130877 0.01089125 0.3869122 0.01089125 0.3869122 0.5108913 0.3869122 0.7391086 0.375 0.75 0.625 0.5 0.625 0.75 0.6130877 0.5108913 0.625 0.75 0.6130877 0.7391088 0.6130877 0.5108913 0.3869122 0.5108913 0.375 0.75 0.375 0.5 0.625 0.5 0.6130877 0.5108913 0.3869122 0.5108913 0.375 0.75 0.3869122 0.7391086 0.6130877 0.7391088</float_array>
          <technique_common>
            <accessor source="#Cube_155-mesh-map-0-array" count="96" stride="2">
              <param name="S" type="float"/>
              <param name="T" type="float"/>
            </accessor>
          </technique_common>
        </source>
        <vertices id="Cube_155-mesh-vertices">
          <input semantic="POSITION" source="#Cube_155-mesh-positions"/>
        </vertices>
        <triangles count="32">
          <input semantic="VERTEX" source="#Cube_155-mesh-vertices" offset="0"/>
          <input semantic="NORMAL" source="#Cube_155-mesh-normals" offset="1"/>
          <input semantic="TEXCOORD" source="#Cube_155-mesh-map-0" offset="2" set="0"/>
          <p>4 0 0 2 0 1 0 0 2 2 1 3 7 1 4 3 1 5 1 2 6 7 2 7 5 2 8 4 3 9 1 3 10 5 3 11 9 2 12 10 2 13 8 2 14 11 3 15 12 3 16 10 3 17 15 0 18 13 0 19 14 0 20 8 1 21 14 1 22 9 1 23 5 4 24 8 4 25 4 4 26 7 5 27 6 5 28 12 5 29 1 6 30 0 6 31 14 6 32 3 7 33 11 7 34 2 7 35 4 0 36 6 0 37 2 0 38 2 1 39 6 1 40 7 1 41 1 2 42 3 2 43 7 2 44 4 3 45 0 3 46 1 3 47 9 2 48 11 2 49 10 2 50 11 3 51 13 3 52 12 3 53 15 0 54 12 0 55 13 0 56 8 1 57 15 1 58 14 1 59 5 8 60 15 8 61 8 8 62 15 5 63 5 5 64 7 5 65 6 5 66 4 5 67 10 5 68 4 5 69 8 5 70 10 5 71 12 5 72 15 5 73 7 5 74 6 9 75 10 9 76 12 9 77 14 6 78 13 6 79 3 6 80 0 6 81 2 6 82 9 6 83 2 6 84 11 6 85 9 6 86 14 6 87 3 6 88 1 6 89 0 10 90 9 10 91 14 10 92 3 11 93 13 11 94 11 11 95</p>
        </triangles>
      </mesh>
    </geometry>
    <geometry id="Cube_152-mesh" name="Cube.152">
      <mesh>
        <source id="Cube_152-mesh-positions">
          <float_array id="Cube_152-mesh-positions-array" count="48">1 1 1 1 1 -1 1 -1 1 1 -1 -1 -1 1 1 -1 1 -1 -1 -1 1 -1 -1 -1 -1 0.9128698 0.9047017 1 0.9128698 0.9047017 -1 -0.9128698 0.9047017 1 -0.9128698 0.9047017 -1 -0.9128698 -0.9047017 1 -0.9128698 -0.9047017 1 0.9128698 -0.9047017 -1 0.9128698 -0.9047017</float_array>
          <technique_common>
            <accessor source="#Cube_152-mesh-positions-array" count="16" stride="3">
              <param name="X" type="float"/>
              <param name="Y" type="float"/>
              <param name="Z" type="float"/>
            </accessor>
          </technique_common>
        </source>
        <source id="Cube_152-mesh-normals">
          <float_array id="Cube_152-mesh-normals-array" count="36">0 0 1 0 -1 0 0 0 -1 0 1 0 -1 6.84087e-7 0 -1 0 0 1 0 0 1 -6.84087e-7 0 -1 -1.51229e-6 0 -1 1.51229e-6 0 1 -1.51229e-6 0 1 1.51229e-6 0</float_array>
          <technique_common>
            <accessor source="#Cube_152-mesh-normals-array" count="12" stride="3">
              <param name="X" type="float"/>
              <param name="Y" type="float"/>
              <param name="Z" type="float"/>
            </accessor>
          </technique_common>
        </source>
        <source id="Cube_152-mesh-map-0">
          <float_array id="Cube_152-mesh-map-0-array" count="192">0.875 0.5 0.625 0.75 0.625 0.5 0.625 0.75 0.375 1 0.375 0.75 0.375 0.5 0.125 0.75 0.125 0.5 0.625 0.25 0.375 0.5 0.375 0.25 0.6595737 0.5 0.8404263 0.75 0.8404263 0.5 0.625 0.7845738 0.375 0.9654263 0.625 0.9654263 0.1595737 0.5 0.3404263 0.75 0.3404263 0.5 0.625 0.2845737 0.375 0.4654263 0.625 0.4654263 0.375 0.25 0.6130877 0.2391087 0.625 0.25 0.375 0 0.625 0 0.3869122 0.01089125 0.375 0.5 0.625 0.5 0.3869122 0.5108913 0.375 0.75 0.6130877 0.7391088 0.625 0.75 0.875 0.5 0.875 0.75 0.625 0.75 0.625 0.75 0.625 1 0.375 1 0.375 0.5 0.375 0.75 0.125 0.75 0.625 0.25 0.625 0.5 0.375 0.5 0.6595737 0.5 0.6595737 0.75 0.8404263 0.75 0.625 0.7845738 0.375 0.7845737 0.375 0.9654263 0.1595737 0.5 0.1595737 0.75 0.3404263 0.75 0.625 0.2845737 0.375 0.2845737 0.375 0.4654263 0.375 0.25 0.3869122 0.2391087 0.6130877 0.2391087 0.3869122 0.2391087 0.375 0.25 0.375 0 0.625 0 0.625 0.25 0.6130877 0.01089125 0.625 0.25 0.6130877 0.2391087 0.6130877 0.01089125 0.3869122 0.01089125 0.3869122 0.2391087 0.375 0 0.625 0 0.6130877 0.01089125 0.3869122 0.01089125 0.3869122 0.5108913 0.3869122 0.7391086 0.375 0.75 0.625 0.5 0.625 0.75 0.6130877 0.5108913 0.625 0.75 0.6130877 0.7391088 0.6130877 0.5108913 0.3869122 0.5108913 0.375 0.75 0.375 0.5 0.625 0.5 0.6130877 0.5108913 0.3869122 0.5108913 0.375 0.75 0.3869122 0.7391086 0.6130877 0.7391088</float_array>
          <technique_common>
            <accessor source="#Cube_152-mesh-map-0-array" count="96" stride="2">
              <param name="S" type="float"/>
              <param name="T" type="float"/>
            </accessor>
          </technique_common>
        </source>
        <vertices id="Cube_152-mesh-vertices">
          <input semantic="POSITION" source="#Cube_152-mesh-positions"/>
        </vertices>
        <triangles count="32">
          <input semantic="VERTEX" source="#Cube_152-mesh-vertices" offset="0"/>
          <input semantic="NORMAL" source="#Cube_152-mesh-normals" offset="1"/>
          <input semantic="TEXCOORD" source="#Cube_152-mesh-map-0" offset="2" set="0"/>
          <p>4 0 0 2 0 1 0 0 2 2 1 3 7 1 4 3 1 5 1 2 6 7 2 7 5 2 8 4 3 9 1 3 10 5 3 11 9 2 12 10 2 13 8 2 14 11 3 15 12 3 16 10 3 17 15 0 18 13 0 19 14 0 20 8 1 21 14 1 22 9 1 23 5 4 24 8 4 25 4 4 26 7 5 27 6 5 28 12 5 29 1 6 30 0 6 31 14 6 32 3 7 33 11 7 34 2 7 35 4 0 36 6 0 37 2 0 38 2 1 39 6 1 40 7 1 41 1 2 42 3 2 43 7 2 44 4 3 45 0 3 46 1 3 47 9 2 48 11 2 49 10 2 50 11 3 51 13 3 52 12 3 53 15 0 54 12 0 55 13 0 56 8 1 57 15 1 58 14 1 59 5 8 60 15 8 61 8 8 62 15 5 63 5 5 64 7 5 65 6 5 66 4 5 67 10 5 68 4 5 69 8 5 70 10 5 71 12 5 72 15 5 73 7 5 74 6 9 75 10 9 76 12 9 77 14 6 78 13 6 79 3 6 80 0 6 81 2 6 82 9 6 83 2 6 84 11 6 85 9 6 86 14 6 87 3 6 88 1 6 89 0 10 90 9 10 91 14 10 92 3 11 93 13 11 94 11 11 95</p>
        </triangles>
      </mesh>
    </geometry>
    <geometry id="Cube_151-mesh" name="Cube.151">
      <mesh>
        <source id="Cube_151-mesh-positions">
          <float_array id="Cube_151-mesh-positions-array" count="48">1 1 1 1 1 -1 1 -1 1 1 -1 -1 -1 1 1 -1 1 -1 -1 -1 1 -1 -1 -1 -1 0.9128698 0.9047017 1 0.9128698 0.9047017 -1 -0.9128698 0.9047017 1 -0.9128698 0.9047017 -1 -0.9128698 -0.9047017 1 -0.9128698 -0.9047017 1 0.9128698 -0.9047017 -1 0.9128698 -0.9047017</float_array>
          <technique_common>
            <accessor source="#Cube_151-mesh-positions-array" count="16" stride="3">
              <param name="X" type="float"/>
              <param name="Y" type="float"/>
              <param name="Z" type="float"/>
            </accessor>
          </technique_common>
        </source>
        <source id="Cube_151-mesh-normals">
          <float_array id="Cube_151-mesh-normals-array" count="36">0 0 1 0 -1 0 0 0 -1 0 1 0 -1 6.84087e-7 0 -1 0 0 1 0 0 1 -6.84087e-7 0 -1 -1.51229e-6 0 -1 1.51229e-6 0 1 -1.51229e-6 0 1 1.51229e-6 0</float_array>
          <technique_common>
            <accessor source="#Cube_151-mesh-normals-array" count="12" stride="3">
              <param name="X" type="float"/>
              <param name="Y" type="float"/>
              <param name="Z" type="float"/>
            </accessor>
          </technique_common>
        </source>
        <source id="Cube_151-mesh-map-0">
          <float_array id="Cube_151-mesh-map-0-array" count="192">0.875 0.5 0.625 0.75 0.625 0.5 0.625 0.75 0.375 1 0.375 0.75 0.375 0.5 0.125 0.75 0.125 0.5 0.625 0.25 0.375 0.5 0.375 0.25 0.6595737 0.5 0.8404263 0.75 0.8404263 0.5 0.625 0.7845738 0.375 0.9654263 0.625 0.9654263 0.1595737 0.5 0.3404263 0.75 0.3404263 0.5 0.625 0.2845737 0.375 0.4654263 0.625 0.4654263 0.375 0.25 0.6130877 0.2391087 0.625 0.25 0.375 0 0.625 0 0.3869122 0.01089125 0.375 0.5 0.625 0.5 0.3869122 0.5108913 0.375 0.75 0.6130877 0.7391088 0.625 0.75 0.875 0.5 0.875 0.75 0.625 0.75 0.625 0.75 0.625 1 0.375 1 0.375 0.5 0.375 0.75 0.125 0.75 0.625 0.25 0.625 0.5 0.375 0.5 0.6595737 0.5 0.6595737 0.75 0.8404263 0.75 0.625 0.7845738 0.375 0.7845737 0.375 0.9654263 0.1595737 0.5 0.1595737 0.75 0.3404263 0.75 0.625 0.2845737 0.375 0.2845737 0.375 0.4654263 0.375 0.25 0.3869122 0.2391087 0.6130877 0.2391087 0.3869122 0.2391087 0.375 0.25 0.375 0 0.625 0 0.625 0.25 0.6130877 0.01089125 0.625 0.25 0.6130877 0.2391087 0.6130877 0.01089125 0.3869122 0.01089125 0.3869122 0.2391087 0.375 0 0.625 0 0.6130877 0.01089125 0.3869122 0.01089125 0.3869122 0.5108913 0.3869122 0.7391086 0.375 0.75 0.625 0.5 0.625 0.75 0.6130877 0.5108913 0.625 0.75 0.6130877 0.7391088 0.6130877 0.5108913 0.3869122 0.5108913 0.375 0.75 0.375 0.5 0.625 0.5 0.6130877 0.5108913 0.3869122 0.5108913 0.375 0.75 0.3869122 0.7391086 0.6130877 0.7391088</float_array>
          <technique_common>
            <accessor source="#Cube_151-mesh-map-0-array" count="96" stride="2">
              <param name="S" type="float"/>
              <param name="T" type="float"/>
            </accessor>
          </technique_common>
        </source>
        <vertices id="Cube_151-mesh-vertices">
          <input semantic="POSITION" source="#Cube_151-mesh-positions"/>
        </vertices>
        <triangles count="32">
          <input semantic="VERTEX" source="#Cube_151-mesh-vertices" offset="0"/>
          <input semantic="NORMAL" source="#Cube_151-mesh-normals" offset="1"/>
          <input semantic="TEXCOORD" source="#Cube_151-mesh-map-0" offset="2" set="0"/>
          <p>4 0 0 2 0 1 0 0 2 2 1 3 7 1 4 3 1 5 1 2 6 7 2 7 5 2 8 4 3 9 1 3 10 5 3 11 9 2 12 10 2 13 8 2 14 11 3 15 12 3 16 10 3 17 15 0 18 13 0 19 14 0 20 8 1 21 14 1 22 9 1 23 5 4 24 8 4 25 4 4 26 7 5 27 6 5 28 12 5 29 1 6 30 0 6 31 14 6 32 3 7 33 11 7 34 2 7 35 4 0 36 6 0 37 2 0 38 2 1 39 6 1 40 7 1 41 1 2 42 3 2 43 7 2 44 4 3 45 0 3 46 1 3 47 9 2 48 11 2 49 10 2 50 11 3 51 13 3 52 12 3 53 15 0 54 12 0 55 13 0 56 8 1 57 15 1 58 14 1 59 5 8 60 15 8 61 8 8 62 15 5 63 5 5 64 7 5 65 6 5 66 4 5 67 10 5 68 4 5 69 8 5 70 10 5 71 12 5 72 15 5 73 7 5 74 6 9 75 10 9 76 12 9 77 14 6 78 13 6 79 3 6 80 0 6 81 2 6 82 9 6 83 2 6 84 11 6 85 9 6 86 14 6 87 3 6 88 1 6 89 0 10 90 9 10 91 14 10 92 3 11 93 13 11 94 11 11 95</p>
        </triangles>
      </mesh>
    </geometry>
    <geometry id="Cube_148-mesh" name="Cube.148">
      <mesh>
        <source id="Cube_148-mesh-positions">
          <float_array id="Cube_148-mesh-positions-array" count="48">1 1 1 1 1 -1 1 -1 1 1 -1 -1 -1 1 1 -1 1 -1 -1 -1 1 -1 -1 -1 -1 0.9128698 0.9047017 1 0.9128698 0.9047017 -1 -0.9128698 0.9047017 1 -0.9128698 0.9047017 -1 -0.9128698 -0.9047017 1 -0.9128698 -0.9047017 1 0.9128698 -0.9047017 -1 0.9128698 -0.9047017</float_array>
          <technique_common>
            <accessor source="#Cube_148-mesh-positions-array" count="16" stride="3">
              <param name="X" type="float"/>
              <param name="Y" type="float"/>
              <param name="Z" type="float"/>
            </accessor>
          </technique_common>
        </source>
        <source id="Cube_148-mesh-normals">
          <float_array id="Cube_148-mesh-normals-array" count="36">0 0 1 0 -1 0 0 0 -1 0 1 0 -1 6.84087e-7 0 -1 0 0 1 0 0 1 -6.84087e-7 0 -1 -1.51229e-6 0 -1 1.51229e-6 0 1 -1.51229e-6 0 1 1.51229e-6 0</float_array>
          <technique_common>
            <accessor source="#Cube_148-mesh-normals-array" count="12" stride="3">
              <param name="X" type="float"/>
              <param name="Y" type="float"/>
              <param name="Z" type="float"/>
            </accessor>
          </technique_common>
        </source>
        <source id="Cube_148-mesh-map-0">
          <float_array id="Cube_148-mesh-map-0-array" count="192">0.875 0.5 0.625 0.75 0.625 0.5 0.625 0.75 0.375 1 0.375 0.75 0.375 0.5 0.125 0.75 0.125 0.5 0.625 0.25 0.375 0.5 0.375 0.25 0.6595737 0.5 0.8404263 0.75 0.8404263 0.5 0.625 0.7845738 0.375 0.9654263 0.625 0.9654263 0.1595737 0.5 0.3404263 0.75 0.3404263 0.5 0.625 0.2845737 0.375 0.4654263 0.625 0.4654263 0.375 0.25 0.6130877 0.2391087 0.625 0.25 0.375 0 0.625 0 0.3869122 0.01089125 0.375 0.5 0.625 0.5 0.3869122 0.5108913 0.375 0.75 0.6130877 0.7391088 0.625 0.75 0.875 0.5 0.875 0.75 0.625 0.75 0.625 0.75 0.625 1 0.375 1 0.375 0.5 0.375 0.75 0.125 0.75 0.625 0.25 0.625 0.5 0.375 0.5 0.6595737 0.5 0.6595737 0.75 0.8404263 0.75 0.625 0.7845738 0.375 0.7845737 0.375 0.9654263 0.1595737 0.5 0.1595737 0.75 0.3404263 0.75 0.625 0.2845737 0.375 0.2845737 0.375 0.4654263 0.375 0.25 0.3869122 0.2391087 0.6130877 0.2391087 0.3869122 0.2391087 0.375 0.25 0.375 0 0.625 0 0.625 0.25 0.6130877 0.01089125 0.625 0.25 0.6130877 0.2391087 0.6130877 0.01089125 0.3869122 0.01089125 0.3869122 0.2391087 0.375 0 0.625 0 0.6130877 0.01089125 0.3869122 0.01089125 0.3869122 0.5108913 0.3869122 0.7391086 0.375 0.75 0.625 0.5 0.625 0.75 0.6130877 0.5108913 0.625 0.75 0.6130877 0.7391088 0.6130877 0.5108913 0.3869122 0.5108913 0.375 0.75 0.375 0.5 0.625 0.5 0.6130877 0.5108913 0.3869122 0.5108913 0.375 0.75 0.3869122 0.7391086 0.6130877 0.7391088</float_array>
          <technique_common>
            <accessor source="#Cube_148-mesh-map-0-array" count="96" stride="2">
              <param name="S" type="float"/>
              <param name="T" type="float"/>
            </accessor>
          </technique_common>
        </source>
        <vertices id="Cube_148-mesh-vertices">
          <input semantic="POSITION" source="#Cube_148-mesh-positions"/>
        </vertices>
        <triangles count="32">
          <input semantic="VERTEX" source="#Cube_148-mesh-vertices" offset="0"/>
          <input semantic="NORMAL" source="#Cube_148-mesh-normals" offset="1"/>
          <input semantic="TEXCOORD" source="#Cube_148-mesh-map-0" offset="2" set="0"/>
          <p>4 0 0 2 0 1 0 0 2 2 1 3 7 1 4 3 1 5 1 2 6 7 2 7 5 2 8 4 3 9 1 3 10 5 3 11 9 2 12 10 2 13 8 2 14 11 3 15 12 3 16 10 3 17 15 0 18 13 0 19 14 0 20 8 1 21 14 1 22 9 1 23 5 4 24 8 4 25 4 4 26 7 5 27 6 5 28 12 5 29 1 6 30 0 6 31 14 6 32 3 7 33 11 7 34 2 7 35 4 0 36 6 0 37 2 0 38 2 1 39 6 1 40 7 1 41 1 2 42 3 2 43 7 2 44 4 3 45 0 3 46 1 3 47 9 2 48 11 2 49 10 2 50 11 3 51 13 3 52 12 3 53 15 0 54 12 0 55 13 0 56 8 1 57 15 1 58 14 1 59 5 8 60 15 8 61 8 8 62 15 5 63 5 5 64 7 5 65 6 5 66 4 5 67 10 5 68 4 5 69 8 5 70 10 5 71 12 5 72 15 5 73 7 5 74 6 9 75 10 9 76 12 9 77 14 6 78 13 6 79 3 6 80 0 6 81 2 6 82 9 6 83 2 6 84 11 6 85 9 6 86 14 6 87 3 6 88 1 6 89 0 10 90 9 10 91 14 10 92 3 11 93 13 11 94 11 11 95</p>
        </triangles>
      </mesh>
    </geometry>
    <geometry id="Cube_147-mesh" name="Cube.147">
      <mesh>
        <source id="Cube_147-mesh-positions">
          <float_array id="Cube_147-mesh-positions-array" count="48">1 1 1 1 1 -1 1 -1 1 1 -1 -1 -1 1 1 -1 1 -1 -1 -1 1 -1 -1 -1 -1 0.9128698 0.9047017 1 0.9128698 0.9047017 -1 -0.9128698 0.9047017 1 -0.9128698 0.9047017 -1 -0.9128698 -0.9047017 1 -0.9128698 -0.9047017 1 0.9128698 -0.9047017 -1 0.9128698 -0.9047017</float_array>
          <technique_common>
            <accessor source="#Cube_147-mesh-positions-array" count="16" stride="3">
              <param name="X" type="float"/>
              <param name="Y" type="float"/>
              <param name="Z" type="float"/>
            </accessor>
          </technique_common>
        </source>
        <source id="Cube_147-mesh-normals">
          <float_array id="Cube_147-mesh-normals-array" count="36">0 0 1 0 -1 0 0 0 -1 0 1 0 -1 6.84087e-7 0 -1 0 0 1 0 0 1 -6.84087e-7 0 -1 -1.51229e-6 0 -1 1.51229e-6 0 1 -1.51229e-6 0 1 1.51229e-6 0</float_array>
          <technique_common>
            <accessor source="#Cube_147-mesh-normals-array" count="12" stride="3">
              <param name="X" type="float"/>
              <param name="Y" type="float"/>
              <param name="Z" type="float"/>
            </accessor>
          </technique_common>
        </source>
        <source id="Cube_147-mesh-map-0">
          <float_array id="Cube_147-mesh-map-0-array" count="192">0.875 0.5 0.625 0.75 0.625 0.5 0.625 0.75 0.375 1 0.375 0.75 0.375 0.5 0.125 0.75 0.125 0.5 0.625 0.25 0.375 0.5 0.375 0.25 0.6595737 0.5 0.8404263 0.75 0.8404263 0.5 0.625 0.7845738 0.375 0.9654263 0.625 0.9654263 0.1595737 0.5 0.3404263 0.75 0.3404263 0.5 0.625 0.2845737 0.375 0.4654263 0.625 0.4654263 0.375 0.25 0.6130877 0.2391087 0.625 0.25 0.375 0 0.625 0 0.3869122 0.01089125 0.375 0.5 0.625 0.5 0.3869122 0.5108913 0.375 0.75 0.6130877 0.7391088 0.625 0.75 0.875 0.5 0.875 0.75 0.625 0.75 0.625 0.75 0.625 1 0.375 1 0.375 0.5 0.375 0.75 0.125 0.75 0.625 0.25 0.625 0.5 0.375 0.5 0.6595737 0.5 0.6595737 0.75 0.8404263 0.75 0.625 0.7845738 0.375 0.7845737 0.375 0.9654263 0.1595737 0.5 0.1595737 0.75 0.3404263 0.75 0.625 0.2845737 0.375 0.2845737 0.375 0.4654263 0.375 0.25 0.3869122 0.2391087 0.6130877 0.2391087 0.3869122 0.2391087 0.375 0.25 0.375 0 0.625 0 0.625 0.25 0.6130877 0.01089125 0.625 0.25 0.6130877 0.2391087 0.6130877 0.01089125 0.3869122 0.01089125 0.3869122 0.2391087 0.375 0 0.625 0 0.6130877 0.01089125 0.3869122 0.01089125 0.3869122 0.5108913 0.3869122 0.7391086 0.375 0.75 0.625 0.5 0.625 0.75 0.6130877 0.5108913 0.625 0.75 0.6130877 0.7391088 0.6130877 0.5108913 0.3869122 0.5108913 0.375 0.75 0.375 0.5 0.625 0.5 0.6130877 0.5108913 0.3869122 0.5108913 0.375 0.75 0.3869122 0.7391086 0.6130877 0.7391088</float_array>
          <technique_common>
            <accessor source="#Cube_147-mesh-map-0-array" count="96" stride="2">
              <param name="S" type="float"/>
              <param name="T" type="float"/>
            </accessor>
          </technique_common>
        </source>
        <vertices id="Cube_147-mesh-vertices">
          <input semantic="POSITION" source="#Cube_147-mesh-positions"/>
        </vertices>
        <triangles count="32">
          <input semantic="VERTEX" source="#Cube_147-mesh-vertices" offset="0"/>
          <input semantic="NORMAL" source="#Cube_147-mesh-normals" offset="1"/>
          <input semantic="TEXCOORD" source="#Cube_147-mesh-map-0" offset="2" set="0"/>
          <p>4 0 0 2 0 1 0 0 2 2 1 3 7 1 4 3 1 5 1 2 6 7 2 7 5 2 8 4 3 9 1 3 10 5 3 11 9 2 12 10 2 13 8 2 14 11 3 15 12 3 16 10 3 17 15 0 18 13 0 19 14 0 20 8 1 21 14 1 22 9 1 23 5 4 24 8 4 25 4 4 26 7 5 27 6 5 28 12 5 29 1 6 30 0 6 31 14 6 32 3 7 33 11 7 34 2 7 35 4 0 36 6 0 37 2 0 38 2 1 39 6 1 40 7 1 41 1 2 42 3 2 43 7 2 44 4 3 45 0 3 46 1 3 47 9 2 48 11 2 49 10 2 50 11 3 51 13 3 52 12 3 53 15 0 54 12 0 55 13 0 56 8 1 57 15 1 58 14 1 59 5 8 60 15 8 61 8 8 62 15 5 63 5 5 64 7 5 65 6 5 66 4 5 67 10 5 68 4 5 69 8 5 70 10 5 71 12 5 72 15 5 73 7 5 74 6 9 75 10 9 76 12 9 77 14 6 78 13 6 79 3 6 80 0 6 81 2 6 82 9 6 83 2 6 84 11 6 85 9 6 86 14 6 87 3 6 88 1 6 89 0 10 90 9 10 91 14 10 92 3 11 93 13 11 94 11 11 95</p>
        </triangles>
      </mesh>
    </geometry>
    <geometry id="Cube_144-mesh" name="Cube.144">
      <mesh>
        <source id="Cube_144-mesh-positions">
          <float_array id="Cube_144-mesh-positions-array" count="48">1 1 1 1 1 -1 1 -1 1 1 -1 -1 -1 1 1 -1 1 -1 -1 -1 1 -1 -1 -1 -1 0.9128698 0.9047017 1 0.9128698 0.9047017 -1 -0.9128698 0.9047017 1 -0.9128698 0.9047017 -1 -0.9128698 -0.9047017 1 -0.9128698 -0.9047017 1 0.9128698 -0.9047017 -1 0.9128698 -0.9047017</float_array>
          <technique_common>
            <accessor source="#Cube_144-mesh-positions-array" count="16" stride="3">
              <param name="X" type="float"/>
              <param name="Y" type="float"/>
              <param name="Z" type="float"/>
            </accessor>
          </technique_common>
        </source>
        <source id="Cube_144-mesh-normals">
          <float_array id="Cube_144-mesh-normals-array" count="36">0 0 1 0 -1 0 0 0 -1 0 1 0 -1 6.84087e-7 0 -1 0 0 1 0 0 1 -6.84087e-7 0 -1 -1.51229e-6 0 -1 1.51229e-6 0 1 -1.51229e-6 0 1 1.51229e-6 0</float_array>
          <technique_common>
            <accessor source="#Cube_144-mesh-normals-array" count="12" stride="3">
              <param name="X" type="float"/>
              <param name="Y" type="float"/>
              <param name="Z" type="float"/>
            </accessor>
          </technique_common>
        </source>
        <source id="Cube_144-mesh-map-0">
          <float_array id="Cube_144-mesh-map-0-array" count="192">0.875 0.5 0.625 0.75 0.625 0.5 0.625 0.75 0.375 1 0.375 0.75 0.375 0.5 0.125 0.75 0.125 0.5 0.625 0.25 0.375 0.5 0.375 0.25 0.6595737 0.5 0.8404263 0.75 0.8404263 0.5 0.625 0.7845738 0.375 0.9654263 0.625 0.9654263 0.1595737 0.5 0.3404263 0.75 0.3404263 0.5 0.625 0.2845737 0.375 0.4654263 0.625 0.4654263 0.375 0.25 0.6130877 0.2391087 0.625 0.25 0.375 0 0.625 0 0.3869122 0.01089125 0.375 0.5 0.625 0.5 0.3869122 0.5108913 0.375 0.75 0.6130877 0.7391088 0.625 0.75 0.875 0.5 0.875 0.75 0.625 0.75 0.625 0.75 0.625 1 0.375 1 0.375 0.5 0.375 0.75 0.125 0.75 0.625 0.25 0.625 0.5 0.375 0.5 0.6595737 0.5 0.6595737 0.75 0.8404263 0.75 0.625 0.7845738 0.375 0.7845737 0.375 0.9654263 0.1595737 0.5 0.1595737 0.75 0.3404263 0.75 0.625 0.2845737 0.375 0.2845737 0.375 0.4654263 0.375 0.25 0.3869122 0.2391087 0.6130877 0.2391087 0.3869122 0.2391087 0.375 0.25 0.375 0 0.625 0 0.625 0.25 0.6130877 0.01089125 0.625 0.25 0.6130877 0.2391087 0.6130877 0.01089125 0.3869122 0.01089125 0.3869122 0.2391087 0.375 0 0.625 0 0.6130877 0.01089125 0.3869122 0.01089125 0.3869122 0.5108913 0.3869122 0.7391086 0.375 0.75 0.625 0.5 0.625 0.75 0.6130877 0.5108913 0.625 0.75 0.6130877 0.7391088 0.6130877 0.5108913 0.3869122 0.5108913 0.375 0.75 0.375 0.5 0.625 0.5 0.6130877 0.5108913 0.3869122 0.5108913 0.375 0.75 0.3869122 0.7391086 0.6130877 0.7391088</float_array>
          <technique_common>
            <accessor source="#Cube_144-mesh-map-0-array" count="96" stride="2">
              <param name="S" type="float"/>
              <param name="T" type="float"/>
            </accessor>
          </technique_common>
        </source>
        <vertices id="Cube_144-mesh-vertices">
          <input semantic="POSITION" source="#Cube_144-mesh-positions"/>
        </vertices>
        <triangles count="32">
          <input semantic="VERTEX" source="#Cube_144-mesh-vertices" offset="0"/>
          <input semantic="NORMAL" source="#Cube_144-mesh-normals" offset="1"/>
          <input semantic="TEXCOORD" source="#Cube_144-mesh-map-0" offset="2" set="0"/>
          <p>4 0 0 2 0 1 0 0 2 2 1 3 7 1 4 3 1 5 1 2 6 7 2 7 5 2 8 4 3 9 1 3 10 5 3 11 9 2 12 10 2 13 8 2 14 11 3 15 12 3 16 10 3 17 15 0 18 13 0 19 14 0 20 8 1 21 14 1 22 9 1 23 5 4 24 8 4 25 4 4 26 7 5 27 6 5 28 12 5 29 1 6 30 0 6 31 14 6 32 3 7 33 11 7 34 2 7 35 4 0 36 6 0 37 2 0 38 2 1 39 6 1 40 7 1 41 1 2 42 3 2 43 7 2 44 4 3 45 0 3 46 1 3 47 9 2 48 11 2 49 10 2 50 11 3 51 13 3 52 12 3 53 15 0 54 12 0 55 13 0 56 8 1 57 15 1 58 14 1 59 5 8 60 15 8 61 8 8 62 15 5 63 5 5 64 7 5 65 6 5 66 4 5 67 10 5 68 4 5 69 8 5 70 10 5 71 12 5 72 15 5 73 7 5 74 6 9 75 10 9 76 12 9 77 14 6 78 13 6 79 3 6 80 0 6 81 2 6 82 9 6 83 2 6 84 11 6 85 9 6 86 14 6 87 3 6 88 1 6 89 0 10 90 9 10 91 14 10 92 3 11 93 13 11 94 11 11 95</p>
        </triangles>
      </mesh>
    </geometry>
    <geometry id="Cube_143-mesh" name="Cube.143">
      <mesh>
        <source id="Cube_143-mesh-positions">
          <float_array id="Cube_143-mesh-positions-array" count="48">1 1 1 1 1 -1 1 -1 1 1 -1 -1 -1 1 1 -1 1 -1 -1 -1 1 -1 -1 -1 -1 0.9128698 0.9047017 1 0.9128698 0.9047017 -1 -0.9128698 0.9047017 1 -0.9128698 0.9047017 -1 -0.9128698 -0.9047017 1 -0.9128698 -0.9047017 1 0.9128698 -0.9047017 -1 0.9128698 -0.9047017</float_array>
          <technique_common>
            <accessor source="#Cube_143-mesh-positions-array" count="16" stride="3">
              <param name="X" type="float"/>
              <param name="Y" type="float"/>
              <param name="Z" type="float"/>
            </accessor>
          </technique_common>
        </source>
        <source id="Cube_143-mesh-normals">
          <float_array id="Cube_143-mesh-normals-array" count="36">0 0 1 0 -1 0 0 0 -1 0 1 0 -1 6.84087e-7 0 -1 0 0 1 0 0 1 -6.84087e-7 0 -1 -1.51229e-6 0 -1 1.51229e-6 0 1 -1.51229e-6 0 1 1.51229e-6 0</float_array>
          <technique_common>
            <accessor source="#Cube_143-mesh-normals-array" count="12" stride="3">
              <param name="X" type="float"/>
              <param name="Y" type="float"/>
              <param name="Z" type="float"/>
            </accessor>
          </technique_common>
        </source>
        <source id="Cube_143-mesh-map-0">
          <float_array id="Cube_143-mesh-map-0-array" count="192">0.875 0.5 0.625 0.75 0.625 0.5 0.625 0.75 0.375 1 0.375 0.75 0.375 0.5 0.125 0.75 0.125 0.5 0.625 0.25 0.375 0.5 0.375 0.25 0.6595737 0.5 0.8404263 0.75 0.8404263 0.5 0.625 0.7845738 0.375 0.9654263 0.625 0.9654263 0.1595737 0.5 0.3404263 0.75 0.3404263 0.5 0.625 0.2845737 0.375 0.4654263 0.625 0.4654263 0.375 0.25 0.6130877 0.2391087 0.625 0.25 0.375 0 0.625 0 0.3869122 0.01089125 0.375 0.5 0.625 0.5 0.3869122 0.5108913 0.375 0.75 0.6130877 0.7391088 0.625 0.75 0.875 0.5 0.875 0.75 0.625 0.75 0.625 0.75 0.625 1 0.375 1 0.375 0.5 0.375 0.75 0.125 0.75 0.625 0.25 0.625 0.5 0.375 0.5 0.6595737 0.5 0.6595737 0.75 0.8404263 0.75 0.625 0.7845738 0.375 0.7845737 0.375 0.9654263 0.1595737 0.5 0.1595737 0.75 0.3404263 0.75 0.625 0.2845737 0.375 0.2845737 0.375 0.4654263 0.375 0.25 0.3869122 0.2391087 0.6130877 0.2391087 0.3869122 0.2391087 0.375 0.25 0.375 0 0.625 0 0.625 0.25 0.6130877 0.01089125 0.625 0.25 0.6130877 0.2391087 0.6130877 0.01089125 0.3869122 0.01089125 0.3869122 0.2391087 0.375 0 0.625 0 0.6130877 0.01089125 0.3869122 0.01089125 0.3869122 0.5108913 0.3869122 0.7391086 0.375 0.75 0.625 0.5 0.625 0.75 0.6130877 0.5108913 0.625 0.75 0.6130877 0.7391088 0.6130877 0.5108913 0.3869122 0.5108913 0.375 0.75 0.375 0.5 0.625 0.5 0.6130877 0.5108913 0.3869122 0.5108913 0.375 0.75 0.3869122 0.7391086 0.6130877 0.7391088</float_array>
          <technique_common>
            <accessor source="#Cube_143-mesh-map-0-array" count="96" stride="2">
              <param name="S" type="float"/>
              <param name="T" type="float"/>
            </accessor>
          </technique_common>
        </source>
        <vertices id="Cube_143-mesh-vertices">
          <input semantic="POSITION" source="#Cube_143-mesh-positions"/>
        </vertices>
        <triangles count="32">
          <input semantic="VERTEX" source="#Cube_143-mesh-vertices" offset="0"/>
          <input semantic="NORMAL" source="#Cube_143-mesh-normals" offset="1"/>
          <input semantic="TEXCOORD" source="#Cube_143-mesh-map-0" offset="2" set="0"/>
          <p>4 0 0 2 0 1 0 0 2 2 1 3 7 1 4 3 1 5 1 2 6 7 2 7 5 2 8 4 3 9 1 3 10 5 3 11 9 2 12 10 2 13 8 2 14 11 3 15 12 3 16 10 3 17 15 0 18 13 0 19 14 0 20 8 1 21 14 1 22 9 1 23 5 4 24 8 4 25 4 4 26 7 5 27 6 5 28 12 5 29 1 6 30 0 6 31 14 6 32 3 7 33 11 7 34 2 7 35 4 0 36 6 0 37 2 0 38 2 1 39 6 1 40 7 1 41 1 2 42 3 2 43 7 2 44 4 3 45 0 3 46 1 3 47 9 2 48 11 2 49 10 2 50 11 3 51 13 3 52 12 3 53 15 0 54 12 0 55 13 0 56 8 1 57 15 1 58 14 1 59 5 8 60 15 8 61 8 8 62 15 5 63 5 5 64 7 5 65 6 5 66 4 5 67 10 5 68 4 5 69 8 5 70 10 5 71 12 5 72 15 5 73 7 5 74 6 9 75 10 9 76 12 9 77 14 6 78 13 6 79 3 6 80 0 6 81 2 6 82 9 6 83 2 6 84 11 6 85 9 6 86 14 6 87 3 6 88 1 6 89 0 10 90 9 10 91 14 10 92 3 11 93 13 11 94 11 11 95</p>
        </triangles>
      </mesh>
    </geometry>
  </library_geometries>
  <library_visual_scenes>
    <visual_scene id="Scene" name="Scene">
      <node id="Cube_089" name="Cube.089" type="NODE">
        <matrix sid="transform">-4.5897e-9 -0.38 0 4.789281 0.105 -1.66103e-8 0 -0.1 0 0 0.38 3.34 0 0 0 1</matrix>
        <instance_geometry url="#Cube_156-mesh" name="Cube.089"/>
      </node>
      <node id="Cube_088" name="Cube.088" type="NODE">
        <matrix sid="transform">-4.5897e-9 -0.38 0 4.029283 0.105 -1.66103e-8 0 -0.1 0 0 0.38 3.34 0 0 0 1</matrix>
        <instance_geometry url="#Cube_155-mesh" name="Cube.088"/>
      </node>
      <node id="Cube_085" name="Cube.085" type="NODE">
        <matrix sid="transform">-7.86805e-9 -0.38 0 4.029283 0.18 -1.66103e-8 0 12.573 0 0 0.38 3.34 0 0 0 1</matrix>
        <instance_geometry url="#Cube_152-mesh" name="Cube.085"/>
      </node>
      <node id="Cube_084" name="Cube.084" type="NODE">
        <matrix sid="transform">-7.86805e-9 -0.38 0 4.789281 0.18 -1.66103e-8 0 12.573 0 0 0.38 3.34 0 0 0 1</matrix>
        <instance_geometry url="#Cube_151-mesh" name="Cube.084"/>
      </node>
      <node id="Cube_081" name="Cube.081" type="NODE">
        <matrix sid="transform">-7.86805e-9 -0.38 0 16.72 0.18 -1.66103e-8 0 12.573 0 0 0.38 3.34 0 0 0 1</matrix>
        <instance_geometry url="#Cube_148-mesh" name="Cube.081"/>
      </node>
      <node id="Cube_080" name="Cube.080" type="NODE">
        <matrix sid="transform">-7.86805e-9 -0.38 0 15.96 0.18 -1.66103e-8 0 12.573 0 0 0.38 3.34 0 0 0 1</matrix>
        <instance_geometry url="#Cube_147-mesh" name="Cube.080"/>
      </node>
      <node id="Cube_077" name="Cube.077" type="NODE">
        <matrix sid="transform">-4.5897e-9 -0.38 0 15.96 0.105 -1.66103e-8 0 -0.1 0 0 0.38 3.34 0 0 0 1</matrix>
        <instance_geometry url="#Cube_144-mesh" name="Cube.077"/>
      </node>
      <node id="Cube_076" name="Cube.076" type="NODE">
        <matrix sid="transform">-4.5897e-9 -0.38 0 16.72 0.105 -1.66103e-8 0 -0.1 0 0 0.38 3.34 0 0 0 1</matrix>
        <instance_geometry url="#Cube_143-mesh" name="Cube.076"/>
      </node>
    </visual_scene>
  </library_visual_scenes>
  <scene>
    <instance_visual_scene url="#Scene"/>
  </scene>
</COLLADA>