<?xml version="1.0" encoding="utf-8"?>
<COLLADA xmlns="http://www.collada.org/2005/11/COLLADASchema" version="1.4.1" xmlns:xsi="http://www.w3.org/2001/XMLSchema-instance">
  <asset>
    <contributor>
      <author>Blender User</author>
      <authoring_tool>Blender 2.92.0 commit date:2021-02-24, commit time:16:25, hash:02948a2cab44</authoring_tool>
    </contributor>
    <created>2021-04-05T19:13:51</created>
    <modified>2021-04-05T19:13:51</modified>
    <unit name="meter" meter="1"/>
    <up_axis>Z_UP</up_axis>
  </asset>
  <library_images/>
  <library_geometries>
    <geometry id="Cube_010-mesh" name="Cube.010">
      <mesh>
        <source id="Cube_010-mesh-positions">
          <float_array id="Cube_010-mesh-positions-array" count="153">0 0 0 0 0 2 0 2 0 0 2 2 2 0 0 2 0 2 2 2 0 2 2 2 1.831143 2 1.496893 1.831143 0 1.496893 1.831143 0 1.841893 1.831143 2 1.841893 1.908303 0 1.496893 1.908303 2 1.496893 1.908303 2 1.841893 1.908303 0 1.841893 1.746368 0 1.496893 1.746368 2 1.496893 1.746368 0 1.841893 1.746368 2 1.841893 1.823527 0 1.496893 1.823527 2 1.496893 1.823527 2 1.841893 1.823527 0 1.841893 0.4967727 2 1.498107 0.4967727 0 1.498107 0.4967727 0 1.843107 0.4967727 2 1.843107 0.5739324 0 1.498107 0.5739324 2 1.498107 0.5739324 2 1.843107 0.5739324 0 1.843107 0.4117855 0 1.498107 0.4117855 2 1.498107 0.4117855 0 1.843107 0.4117855 2 1.843107 0.4889451 0 1.498107 0.4889451 2 1.498107 0.4889451 2 1.843107 0.4889451 0 1.843107 1.16015 2 1.4975 0.8670412 2 1.497803 1.16015 0 1.8425 0.9839121 2 2 0.9839121 0 2 1.453259 2 1.497197 1.306704 2 1.497348 1.013596 2 1.497652 1.379981 2 1.497272 0.6924895 0 2 0.6924895 2 2</float_array>
          <technique_common>
            <accessor source="#Cube_010-mesh-positions-array" count="51" stride="3">
              <param name="X" type="float"/>
              <param name="Y" type="float"/>
              <param name="Z" type="float"/>
            </accessor>
          </technique_common>
        </source>
        <source id="Cube_010-mesh-normals">
          <float_array id="Cube_010-mesh-normals-array" count="18">-1 0 0 1 0 0 0 0 -1 0 0 1 0 1 0 0 -1 0</float_array>
          <technique_common>
            <accessor source="#Cube_010-mesh-normals-array" count="6" stride="3">
              <param name="X" type="float"/>
              <param name="Y" type="float"/>
              <param name="Z" type="float"/>
            </accessor>
          </technique_common>
        </source>
        <source id="Cube_010-mesh-map-0">
          <float_array id="Cube_010-mesh-map-0-array" count="684">0.625 0 0.375 0.25 0.375 0 0.625 0.5 0.375 0.75 0.375 0.5 0.375 0.5 0.125 0.75 0.125 0.5 0.875 0.5 0.7884389 0.75 0.7884389 0.5 0.375 0.2847797 0.625 0.3097797 0.625 0.2847797 0.625 0.9402203 0.375 0.9652203 0.625 0.9652203 0.1597797 0.5 0.1847797 0.75 0.1847797 0.5 0.8152202 0.75 0.8402203 0.5 0.8152203 0.5 0.625 0.5 0.5621117 0.4885379 0.6052367 0.4885379 0.625 0.75 0.5621117 0.7614621 0.375 0.75 0.625 0.3309445 0.375 0.3559445 0.625 0.3559445 0.625 0.8940555 0.375 0.9190555 0.625 0.9190555 0.2059445 0.5 0.2309445 0.75 0.2309445 0.5 0.7690555 0.75 0.7940555 0.5 0.7690555 0.5 0.5621117 0.4788929 0.6052367 0.4779409 0.6052367 0.4788929 0.6052367 0.7711071 0.5621116 0.772059 0.5621117 0.7711071 0.625 0.3862578 0.375 0.3612578 0.375 0.3862578 0.625 0.8637422 0.375 0.8887423 0.625 0.8887422 0.2362577 0.5 0.2612578 0.75 0.2612578 0.5 0.7637422 0.5 0.7387422 0.75 0.7637423 0.75 0.5621495 0.4316573 0.562159 0.4224977 0.6052367 0.468296 0.625 0.9134389 0.6053885 0.9379036 0.6053884 0.9282584 0.625 0.370284 0.375 0.3952839 0.625 0.3952839 0.625 0.8547161 0.375 0.879716 0.625 0.879716 0.2452839 0.5 0.2702839 0.75 0.2702839 0.5 0.7297161 0.75 0.754716 0.5 0.7297161 0.5 0.5622255 0.3583801 0.5622065 0.3766995 0.375 0.25 0.5622634 0.3120966 0.6053883 0.3111181 0.6053884 0.3120966 0.5622634 0.9485269 0.625 1 0.375 1 0.6053885 0.9379036 0.5622633 0.9388816 0.5622634 0.9379034 0.752011 0.5 0.625 0.75 0.625 0.5 0.7884389 0.5 0.752011 0.75 0.752011 0.5 0.625 0 0.625 0.25 0.375 0.25 0.625 0.5 0.625 0.75 0.375 0.75 0.375 0.5 0.375 0.75 0.125 0.75 0.875 0.5 0.875 0.75 0.7884389 0.75 0.375 0.2847797 0.375 0.3097797 0.625 0.3097797 0.625 0.9402203 0.375 0.9402203 0.375 0.9652203 0.1597797 0.5 0.1597797 0.75 0.1847797 0.75 0.8152202 0.75 0.8402203 0.75 0.8402203 0.5 0.625 0.5 0.375 0.5 0.5621117 0.4885379 0.625 0.75 0.6052367 0.7614622 0.5621117 0.7614621 0.625 0.3309445 0.375 0.3309445 0.375 0.3559445 0.625 0.8940555 0.375 0.8940555 0.375 0.9190555 0.2059445 0.5 0.2059445 0.75 0.2309445 0.75 0.7690555 0.75 0.7940555 0.75 0.7940555 0.5 0.5621117 0.4788929 0.5621117 0.4779409 0.6052367 0.4779409 0.6052367 0.7711071 0.6052367 0.7720592 0.5621116 0.772059 0.625 0.3862578 0.625 0.3612578 0.375 0.3612578 0.625 0.8637422 0.375 0.8637422 0.375 0.8887423 0.2362577 0.5 0.2362577 0.75 0.2612578 0.75 0.7637422 0.5 0.7387422 0.5 0.7387422 0.75 0.6053884 0.3120966 0.625 0.25 0.625 0.3365612 0.625 0.372989 0.625 0.5 0.6052367 0.468296 0.625 0.5 0.6052367 0.4885379 0.6052367 0.4788929 0.6053884 0.3120966 0.625 0.3365612 0.6053884 0.3217415 0.625 0.3365612 0.625 0.372989 0.5622255 0.3583801 0.6053884 0.3217415 0.625 0.3365612 0.5622255 0.3583801 0.5622255 0.3583801 0.5622634 0.3217415 0.6053884 0.3217415 0.625 0.5 0.6052367 0.4788929 0.6052367 0.4779409 0.6052367 0.4779409 0.6052367 0.468296 0.625 0.5 0.625 0.372989 0.6052367 0.468296 0.562159 0.4224977 0.5622065 0.3766995 0.5622255 0.3583801 0.625 0.372989 0.562159 0.4224977 0.5621685 0.4133381 0.625 0.372989 0.5621685 0.4133381 0.5621875 0.3950188 0.625 0.372989 0.5621875 0.3950188 0.5622065 0.3766995 0.625 0.372989 0.6052367 0.468296 0.5621116 0.4682959 0.5621495 0.4316573 0.6052367 0.7720592 0.6052367 0.7711071 0.625 0.75 0.6052367 0.7711071 0.6052367 0.7614622 0.625 0.75 0.625 0.75 0.6052367 0.7817041 0.6052367 0.7720592 0.625 0.75 0.625 0.877011 0.6052367 0.7817041 0.625 0.9134389 0.625 1 0.6053885 0.9379036 0.625 0.877011 0.625 0.9134389 0.6053884 0.9282584 0.6053125 0.8549813 0.6052367 0.7817041 0.625 0.877011 0.6053125 0.8549813 0.625 0.877011 0.6053884 0.9282584 0.625 0.370284 0.375 0.370284 0.375 0.3952839 0.625 0.8547161 0.375 0.8547161 0.375 0.879716 0.2452839 0.5 0.2452839 0.75 0.2702839 0.75 0.7297161 0.75 0.754716 0.75 0.754716 0.5 0.5621117 0.4779409 0.5621117 0.4788929 0.375 0.5 0.5621117 0.4788929 0.5621117 0.4885379 0.375 0.5 0.5621117 0.4779409 0.375 0.5 0.5621116 0.4682959 0.375 0.5 0.375 0.25 0.5622065 0.3766995 0.625 0.25 0.6053884 0.3120966 0.6053883 0.3111181 0.625 0.25 0.6053883 0.3111181 0.6053884 0.3014733 0.5621116 0.4682959 0.375 0.5 0.5621495 0.4316573 0.562159 0.4224977 0.5621495 0.4316573 0.375 0.5 0.562159 0.4224977 0.375 0.5 0.5621685 0.4133381 0.375 0.25 0.625 0.25 0.5622633 0.3014732 0.625 0.25 0.6053884 0.3014733 0.5622633 0.3014732 0.5622633 0.3014732 0.5622634 0.3111181 0.375 0.25 0.5622634 0.3111181 0.5622634 0.3120966 0.375 0.25 0.5621685 0.4133381 0.375 0.5 0.5621875 0.3950188 0.5622065 0.3766995 0.5621875 0.3950188 0.375 0.5 0.5622634 0.3120966 0.5622634 0.3217415 0.375 0.25 0.5622634 0.3217415 0.5622255 0.3583801 0.375 0.25 0.5622634 0.3120966 0.5622634 0.3111181 0.6053883 0.3111181 0.6053884 0.948527 0.6053884 0.9388821 0.625 1 0.6053884 0.9388821 0.6053885 0.9379036 0.625 1 0.375 1 0.375 0.75 0.5622634 0.9282585 0.375 0.75 0.5621117 0.7614621 0.5621117 0.7711071 0.5621117 0.7711071 0.5621116 0.772059 0.375 0.75 0.5621116 0.772059 0.5621117 0.7817041 0.375 0.75 0.375 0.75 0.5621117 0.7817041 0.5622634 0.9282585 0.5622634 0.9379034 0.5622633 0.9388816 0.375 1 0.5622633 0.9388816 0.5622634 0.9485269 0.375 1 0.5622634 0.9379034 0.375 1 0.5622634 0.9282585 0.5622634 0.9485269 0.6053884 0.948527 0.625 1 0.5621117 0.7817041 0.6052367 0.7817041 0.6053125 0.8549813 0.6053125 0.8549813 0.6053884 0.9282584 0.5622634 0.9282585 0.5621117 0.7817041 0.6053125 0.8549813 0.5622634 0.9282585 0.6053885 0.9379036 0.6053884 0.9388821 0.5622633 0.9388816 0.752011 0.5 0.752011 0.75 0.625 0.75 0.7884389 0.5 0.7884389 0.75 0.752011 0.75</float_array>
          <technique_common>
            <accessor source="#Cube_010-mesh-map-0-array" count="342" stride="2">
              <param name="S" type="float"/>
              <param name="T" type="float"/>
            </accessor>
          </technique_common>
        </source>
        <source id="Cube_010-mesh-map-1">
          <float_array id="Cube_010-mesh-map-1-array" count="684">0 0 0 0 0 0 0 0 0 0 0 0 0 0 0 0 0 0 0 0 0 0 0 0 0 0 0 0 0 0 0 0 0 0 0 0 0 0 0 0 0 0 0 0 0 0 0 0 0 0 0 0 0 0 0 0 0 0 0 0 0 0 0 0 0 0 0 0 0 0 0 0 0 0 0 0 0 0 0 0 0 0 0 0 0 0 0 0 0 0 0 0 0 0 0 0 0 0 0 0 0 0 0 0 0 0 0 0 0 0 0 0 0 0 0 0 0 0 0 0 0 0 0 0 0 0 0 0 0 0 0 0 0 0 0 0 0 0 0 0 0 0 0 0 0 0 0 0 0 0 0 0 0 0 0 0 0 0 0 0 0 0 0 0 0 0 0 0 0 0 0 0 0 0 0 0 0 0 0 0 0 0 0 0 0 0 0 0 0 0 0 0 0 0 0 0 0 0 0 0 0 0 0 0 0 0 0 0 0 0 0 0 0 0 0 0 0 0 0 0 0 0 0 0 0 0 0 0 0 0 0 0 0 0 0 0 0 0 0 0 0 0 0 0 0 0 0 0 0 0 0 0 0 0 0 0 0 0 0 0 0 0 0 0 0 0 0 0 0 0 0 0 0 0 0 0 0 0 0 0 0 0 0 0 0 0 0 0 0 0 0 0 0 0 0 0 0 0 0 0 0 0 0 0 0 0 0 0 0 0 0 0 0 0 0 0 0 0 0 0 0 0 0 0 0 0 0 0 0 0 0 0 0 0 0 0 0 0 0 0 0 0 0 0 0 0 0 0 0 0 0 0 0 0 0 0 0 0 0 0 0 0 0 0 0 0 0 0 0 0 0 0 0 0 0 0 0 0 0 0 0 0 0 0 0 0 0 0 0 0 0 0 0 0 0 0 0 0 0 0 0 0 0 0 0 0 0 0 0 0 0 0 0 0 0 0 0 0 0 0 0 0 0 0 0 0 0 0 0 0 0 0 0 0 0 0 0 0 0 0 0 0 0 0 0 0 0 0 0 0 0 0 0 0 0 0 0 0 0 0 0 0 0 0 0 0 0 0 0 0 0 0 0 0 0 0 0 0 0 0 0 0 0 0 0 0 0 0 0 0 0 0 0 0 0 0 0 0 0 0 0 0 0 0 0 0 0 0 0 0 0 0 0 0 0 0 0 0 0 0 0 0 0 0 0 0 0 0 0 0 0 0 0 0 0 0 0 0 0 0 0 0 0 0 0 0 0 0 0 0 0 0 0 0 0 0 0 0 0 0 0 0 0 0 0 0 0 0 0 0 0 0 0 0 0 0 0 0 0 0 0 0 0 0 0 0 0 0 0 0 0 0 0 0 0 0 0 0 0 0 0 0 0 0 0 0 0 0 0 0 0 0 0 0 0 0 0 0 0 0 0 0 0 0 0 0 0 0 0 0 0 0 0 0 0 0 0 0 0 0 0 0 0 0 0 0 0 0 0 0 0 0 0 0 0 0 0 0 0 0 0 0 0 0 0 0 0 0 0 0 0 0 0 0 0 0 0 0 0 0 0 0 0 0</float_array>
          <technique_common>
            <accessor source="#Cube_010-mesh-map-1-array" count="342" stride="2">
              <param name="S" type="float"/>
              <param name="T" type="float"/>
            </accessor>
          </technique_common>
        </source>
        <vertices id="Cube_010-mesh-vertices">
          <input semantic="POSITION" source="#Cube_010-mesh-positions"/>
        </vertices>
        <triangles count="114">
          <input semantic="VERTEX" source="#Cube_010-mesh-vertices" offset="0"/>
          <input semantic="NORMAL" source="#Cube_010-mesh-normals" offset="1"/>
          <input semantic="TEXCOORD" source="#Cube_010-mesh-map-0" offset="2" set="0"/>
          <input semantic="TEXCOORD" source="#Cube_010-mesh-map-1" offset="2" set="1"/>
          <p>1 0 0 2 0 1 0 0 2 7 1 3 4 1 4 6 1 5 6 2 6 0 2 7 2 2 8 3 3 9 49 3 10 50 3 11 9 1 12 11 1 13 10 1 14 14 0 15 12 0 16 15 0 17 9 3 18 13 3 19 8 3 20 14 2 21 10 2 22 11 2 23 7 4 24 13 4 25 14 4 26 5 5 27 12 5 28 4 5 29 18 1 30 17 1 31 19 1 32 22 0 33 20 0 34 23 0 35 16 3 36 21 3 37 17 3 38 22 2 39 18 2 40 19 2 41 8 4 42 22 4 43 11 4 44 10 5 45 20 5 46 9 5 47 27 1 48 25 1 49 24 1 50 30 0 51 28 0 52 31 0 53 25 3 54 29 3 55 24 3 56 26 2 57 30 2 58 31 2 59 45 4 60 48 4 61 19 4 62 49 5 63 26 5 64 31 5 65 34 1 66 33 1 67 35 1 68 38 0 69 36 0 70 39 0 71 32 3 72 37 3 73 33 3 74 38 2 75 34 2 76 35 2 77 41 4 78 47 4 79 2 4 80 24 4 81 38 4 82 27 4 83 32 5 84 1 5 85 0 5 86 26 5 87 36 5 88 25 5 89 43 3 90 5 3 91 7 3 92 50 3 93 44 3 94 43 3 95 1 0 96 3 0 97 2 0 98 7 1 99 5 1 100 4 1 101 6 2 102 4 2 103 0 2 104 3 3 105 1 3 106 49 3 107 9 1 108 8 1 109 11 1 110 14 0 111 13 0 112 12 0 113 9 3 114 12 3 115 13 3 116 14 2 117 15 2 118 10 2 119 7 4 120 6 4 121 13 4 122 5 5 123 15 5 124 12 5 125 18 1 126 16 1 127 17 1 128 22 0 129 21 0 130 20 0 131 16 3 132 20 3 133 21 3 134 22 2 135 23 2 136 18 2 137 8 4 138 21 4 139 22 4 140 10 5 141 23 5 142 20 5 143 27 1 144 26 1 145 25 1 146 30 0 147 29 0 148 28 0 149 25 3 150 28 3 151 29 3 152 26 2 153 27 2 154 30 2 155 27 4 156 3 4 157 50 4 158 43 4 159 7 4 160 19 4 161 7 4 162 14 4 163 11 4 164 27 4 165 50 4 166 30 4 167 50 4 168 43 4 169 41 4 170 30 4 171 50 4 172 41 4 173 41 4 174 29 4 175 30 4 176 7 4 177 11 4 178 22 4 179 22 4 180 19 4 181 7 4 182 43 4 183 19 4 184 48 4 185 47 4 186 41 4 187 43 4 188 48 4 189 46 4 190 43 4 191 46 4 192 40 4 193 43 4 194 40 4 195 47 4 196 43 4 197 19 4 198 17 4 199 45 4 200 23 5 201 10 5 202 5 5 203 10 5 204 15 5 205 5 5 206 5 5 207 18 5 208 23 5 209 5 5 210 44 5 211 18 5 212 49 5 213 1 5 214 26 5 215 44 5 216 49 5 217 31 5 218 42 5 219 18 5 220 44 5 221 42 5 222 44 5 223 31 5 224 34 1 225 32 1 226 33 1 227 38 0 228 37 0 229 36 0 230 32 3 231 36 3 232 37 3 233 38 2 234 39 2 235 34 2 236 21 4 237 8 4 238 6 4 239 8 4 240 13 4 241 6 4 242 21 4 243 6 4 244 17 4 245 6 4 246 2 4 247 47 4 248 3 4 249 27 4 250 38 4 251 3 4 252 38 4 253 35 4 254 17 4 255 6 4 256 45 4 257 48 4 258 45 4 259 6 4 260 48 4 261 6 4 262 46 4 263 2 4 264 3 4 265 33 4 266 3 4 267 35 4 268 33 4 269 33 4 270 37 4 271 2 4 272 37 4 273 24 4 274 2 4 275 46 4 276 6 4 277 40 4 278 47 4 279 40 4 280 6 4 281 24 4 282 29 4 283 2 4 284 29 4 285 41 4 286 2 4 287 24 4 288 37 4 289 38 4 290 34 5 291 39 5 292 1 5 293 39 5 294 26 5 295 1 5 296 0 5 297 4 5 298 28 5 299 4 5 300 12 5 301 9 5 302 9 5 303 20 5 304 4 5 305 20 5 306 16 5 307 4 5 308 4 5 309 16 5 310 28 5 311 25 5 312 36 5 313 0 5 314 36 5 315 32 5 316 0 5 317 25 5 318 0 5 319 28 5 320 32 5 321 34 5 322 1 5 323 16 5 324 18 5 325 42 5 326 42 5 327 31 5 328 28 5 329 16 5 330 42 5 331 28 5 332 26 5 333 39 5 334 36 5 335 43 3 336 44 3 337 5 3 338 50 3 339 49 3 340 44 3 341</p>
        </triangles>
      </mesh>
    </geometry>
    <geometry id="Cube_009-mesh" name="Cube.009">
      <mesh>
        <source id="Cube_009-mesh-positions">
          <float_array id="Cube_009-mesh-positions-array" count="144">1.823104 0.452323 1.498107 1.823104 0.452323 1.843107 1.745945 0.452323 1.498107 1.745945 0.452323 1.843107 0 0 0 0 0 2 0 2 0 0 2 2 2 0 0 2 0 2 2 2 0 2 2 2 1.831355 2 1.498107 1.831355 0 1.498107 1.831355 0 1.843107 1.831355 2 1.843107 1.908514 0 1.498107 1.908514 2 1.498107 1.908514 2 1.843107 1.908514 0 1.843107 1.745945 2 1.498107 1.745945 2 1.843107 1.823104 2 1.498107 1.823104 2 1.843107 1.745945 0 1.498107 1.823104 0 1.498107 1.745945 0 1.843107 1.823104 0 1.843107 1.767995 0.452323 1.843107 1.795083 2 1.498107 1.745945 2 1.717818 1.823104 2 1.623395 0.4117856 2 1.498107 0.4117856 0 1.498107 0.4117856 0 1.843107 0.4117856 2 1.843107 0.4889452 0 1.498107 0.4889452 2 1.498107 0.4889452 2 1.843107 0.4889452 0 1.843107 0.4967727 0 1.498107 0.4967727 2 1.498107 0.4967727 0 1.843107 0.4967727 2 1.843107 0.5739324 0 1.498107 0.5739324 2 1.498107 0.5739324 2 1.843107 0.5739324 0 1.843107</float_array>
          <technique_common>
            <accessor source="#Cube_009-mesh-positions-array" count="48" stride="3">
              <param name="X" type="float"/>
              <param name="Y" type="float"/>
              <param name="Z" type="float"/>
            </accessor>
          </technique_common>
        </source>
        <source id="Cube_009-mesh-normals">
          <float_array id="Cube_009-mesh-normals-array" count="39">-1 0 0 1 0 0 0 0 -1 0 0 1 0 1 7.32409e-7 0 1 0 0 -1 0 0 1 0 0 1 0 0 1 0 -1 0 0 0 1 0 0 1 1.42435e-6</float_array>
          <technique_common>
            <accessor source="#Cube_009-mesh-normals-array" count="13" stride="3">
              <param name="X" type="float"/>
              <param name="Y" type="float"/>
              <param name="Z" type="float"/>
            </accessor>
          </technique_common>
        </source>
        <source id="Cube_009-mesh-map-0">
          <float_array id="Cube_009-mesh-map-0-array" count="648">0.625 0 0.375 0.25 0.375 0 0.625 0.5 0.375 0.75 0.375 0.5 0.375 0.5 0.125 0.75 0.125 0.5 0.875 0.5 0.625 0.75 0.625 0.5 0.375 0.362388 0.625 0.3873881 0.625 0.362388 0.625 0.862612 0.375 0.887612 0.625 0.887612 0.237388 0.5 0.2623881 0.75 0.262388 0.5 0.7626119 0.5 0.737612 0.75 0.762612 0.75 0.625 0.5 0.5622634 0.4885643 0.6053884 0.4885643 0.625 0.75 0.5622634 0.7614357 0.375 0.75 0.625 0.3157888 0.375 0.3214428 0.625 0.3214428 0.625 0.9285572 0.375 0.9342113 0.625 0.9342113 0.1907888 0.5 0.1964428 0.75 0.1964427 0.5 0.8092113 0.5 0.8035572 0.5 0.8035572 0.5714429 0.6053884 0.7710806 0.5622633 0.772112 0.5622633 0.7710806 0.375 0.25 0.375 0.2693459 0.5342113 0.2693459 0.4657887 0.980654 0.375 0.980654 0.375 1 0.125 0.75 0.1443459 0.6592114 0.125 0.5 0.855654 0.75 0.875 0.75 0.875 0.5714429 0.5622634 0.4789194 0.5622634 0.4778881 0.5779244 0.4778881 0.625 0.3741924 0.375 0.3491925 0.375 0.3741924 0.625 0.8758076 0.375 0.9008076 0.625 0.9008076 0.2241924 0.5 0.2491924 0.75 0.2491924 0.5 0.7508076 0.75 0.7758075 0.5 0.7508075 0.5 0.625 0.3629115 0.375 0.3879115 0.625 0.3879115 0.375 0.8870885 0.625 0.8620885 0.375 0.8620885 0.2379115 0.5 0.2629115 0.75 0.2629115 0.5 0.7370885 0.75 0.7620885 0.5 0.7370885 0.5 0.625 1 0.6053884 0.9379035 0.6053884 0.9282584 0.375 0.75 0.5622634 0.7817569 0.5622634 0.9282585 0.375 0.5 0.5622634 0.4682431 0.5622634 0.4743855 0.625 0.25 0.6053884 0.3217415 0.6053884 0.3120965 0.625 0 0.625 0.25 0.375 0.25 0.625 0.5 0.625 0.75 0.375 0.75 0.375 0.5 0.375 0.75 0.125 0.75 0.875 0.5 0.875 0.75 0.625 0.75 0.375 0.362388 0.375 0.3873881 0.625 0.3873881 0.625 0.862612 0.375 0.862612 0.375 0.887612 0.237388 0.5 0.237388 0.75 0.2623881 0.75 0.7626119 0.5 0.737612 0.5 0.737612 0.75 0.625 0.5 0.375 0.5 0.5622634 0.4885643 0.625 0.75 0.6053884 0.7614356 0.5622634 0.7614357 0.625 0.3157888 0.375 0.3157888 0.375 0.3214428 0.625 0.9285572 0.375 0.9285572 0.375 0.9342113 0.1907888 0.5 0.1907887 0.75 0.1964428 0.75 0.8035573 0.75 0.8092113 0.75 0.8035572 0.5714429 0.8092113 0.75 0.8092113 0.5 0.8035572 0.5714429 0.6053884 0.7710806 0.6053883 0.7721119 0.5622633 0.772112 0.5342113 0.2693459 0.625 0.2693459 0.625 0.25 0.625 0.25 0.375 0.25 0.5342113 0.2693459 0.375 1 0.625 1 0.4657887 0.980654 0.625 1 0.625 0.9806541 0.4657887 0.980654 0.1443459 0.75 0.1443459 0.6592114 0.125 0.75 0.1443459 0.6592114 0.1443459 0.5 0.125 0.5 0.875 0.5 0.8556541 0.5 0.875 0.5714429 0.8556541 0.5 0.855654 0.75 0.875 0.5714429 0.6053884 0.477888 0.6053884 0.4789193 0.5779244 0.4778881 0.6053884 0.4789193 0.5622634 0.4789194 0.5779244 0.4778881 0.625 0.3741924 0.625 0.3491925 0.375 0.3491925 0.625 0.8758076 0.375 0.8758076 0.375 0.9008076 0.2241924 0.5 0.2241924 0.75 0.2491924 0.75 0.7508076 0.75 0.7758076 0.75 0.7758075 0.5 0.625 0.3629115 0.375 0.3629115 0.375 0.3879115 0.375 0.8870885 0.625 0.8870885 0.625 0.8620885 0.2379115 0.5 0.2379115 0.75 0.2629115 0.75 0.7370885 0.75 0.7620885 0.75 0.7620885 0.5 0.6053883 0.7721119 0.6053884 0.7710806 0.625 0.75 0.6053884 0.7710806 0.6053884 0.7614356 0.625 0.75 0.625 0.75 0.625 1 0.6053884 0.9282584 0.6053883 0.7721119 0.625 0.75 0.6053884 0.7817569 0.625 1 0.6053884 0.9485267 0.6053884 0.9388819 0.6053884 0.9388819 0.5622634 0.9388819 0.5622634 0.9379035 0.6053884 0.9388819 0.5622634 0.9379035 0.6053884 0.9379035 0.6053884 0.7817569 0.625 0.75 0.6053884 0.9282584 0.5622633 0.9282585 0.5622634 0.7817569 0.6053884 0.7817569 0.625 1 0.6053884 0.9388819 0.6053884 0.9379035 0.6053884 0.9282584 0.5622633 0.9282585 0.6053884 0.7817569 0.5622634 0.9485268 0.6053884 0.9485267 0.625 1 0.375 1 0.375 0.75 0.5622634 0.9282585 0.375 0.75 0.5622634 0.7614357 0.5622633 0.7710806 0.5622633 0.7710806 0.5622633 0.772112 0.375 0.75 0.5622633 0.772112 0.5622634 0.7817569 0.375 0.75 0.5622634 0.9485268 0.625 1 0.375 1 0.5622634 0.9282585 0.5622634 0.9379035 0.375 1 0.5622634 0.9379035 0.5622634 0.9388819 0.375 1 0.5622634 0.9388819 0.5622634 0.9485268 0.375 1 0.5622634 0.4789194 0.5622634 0.4885643 0.375 0.5 0.375 0.25 0.625 0.25 0.5622634 0.3014732 0.625 0.25 0.6053883 0.3014732 0.5622634 0.3014732 0.5622634 0.3014732 0.5622633 0.3111181 0.375 0.25 0.5622633 0.3111181 0.5622633 0.3120965 0.375 0.25 0.375 0.25 0.5622633 0.3217415 0.375 0.5 0.5622634 0.4789194 0.375 0.5 0.5622634 0.4778881 0.5622634 0.4743855 0.5622634 0.4778881 0.375 0.5 0.5622633 0.3120965 0.5622633 0.3217415 0.375 0.25 0.5622633 0.3217415 0.5622634 0.4682431 0.375 0.5 0.5622633 0.3120965 0.5622633 0.3111181 0.6053884 0.3111181 0.6053884 0.3111181 0.6053883 0.3014732 0.625 0.25 0.625 0.25 0.625 0.5 0.6053884 0.3217415 0.625 0.5 0.6053884 0.4885643 0.6053884 0.4789193 0.6053884 0.477888 0.625 0.5 0.6053884 0.4789193 0.6053884 0.4682431 0.5897274 0.4682431 0.6053884 0.3217415 0.5897274 0.4682431 0.5622634 0.4682431 0.5622633 0.3217415 0.625 0.5 0.6053884 0.477888 0.6053884 0.4682431 0.5897274 0.4682431 0.5622633 0.3217415 0.6053884 0.3217415 0.625 0.5 0.6053884 0.4682431 0.6053884 0.3217415 0.6053884 0.3120965 0.5622633 0.3120965 0.6053884 0.3111181 0.6053884 0.3120965 0.6053884 0.3111181 0.625 0.25</float_array>
          <technique_common>
            <accessor source="#Cube_009-mesh-map-0-array" count="324" stride="2">
              <param name="S" type="float"/>
              <param name="T" type="float"/>
            </accessor>
          </technique_common>
        </source>
        <source id="Cube_009-mesh-map-1">
          <float_array id="Cube_009-mesh-map-1-array" count="648">0 0 0 0 0 0 0 0 0 0 0 0 0 0 0 0 0 0 0 0 0 0 0 0 0 0 0 0 0 0 0 0 0 0 0 0 0 0 0 0 0 0 0 0 0 0 0 0 0 0 0 0 0 0 0 0 0 0 0 0 0 0 0 0 0 0 0 0 0 0 0 0 0 0 0 0 0 0 0 0 0 0 0 0 0 0 0 0 0 0 0 0 0 0 0 0 0 0 0 0 0 0 0 0 0 0 0 0 0 0 0 0 0 0 0 0 0 0 0 0 0 0 0 0 0 0 0 0 0 0 0 0 0 0 0 0 0 0 0 0 0 0 0 0 0 0 0 0 0 0 0 0 0 0 0 0 0 0 0 0 0 0 0 0 0 0 0 0 0 0 0 0 0 0 0 0 0 0 0 0 0 0 0 0 0 0 0 0 0 0 0 0 0 0 0 0 0 0 0 0 0 0 0 0 0 0 0 0 0 0 0 0 0 0 0 0 0 0 0 0 0 0 0 0 0 0 0 0 0 0 0 0 0 0 0 0 0 0 0 0 0 0 0 0 0 0 0 0 0 0 0 0 0 0 0 0 0 0 0 0 0 0 0 0 0 0 0 0 0 0 0 0 0 0 0 0 0 0 0 0 0 0 0 0 0 0 0 0 0 0 0 0 0 0 0 0 0 0 0 0 0 0 0 0 0 0 0 0 0 0 0 0 0 0 0 0 0 0 0 0 0 0 0 0 0 0 0 0 0 0 0 0 0 0 0 0 0 0 0 0 0 0 0 0 0 0 0 0 0 0 0 0 0 0 0 0 0 0 0 0 0 0 0 0 0 0 0 0 0 0 0 0 0 0 0 0 0 0 0 0 0 0 0 0 0 0 0 0 0 0 0 0 0 0 0 0 0 0 0 0 0 0 0 0 0 0 0 0 0 0 0 0 0 0 0 0 0 0 0 0 0 0 0 0 0 0 0 0 0 0 0 0 0 0 0 0 0 0 0 0 0 0 0 0 0 0 0 0 0 0 0 0 0 0 0 0 0 0 0 0 0 0 0 0 0 0 0 0 0 0 0 0 0 0 0 0 0 0 0 0 0 0 0 0 0 0 0 0 0 0 0 0 0 0 0 0 0 0 0 0 0 0 0 0 0 0 0 0 0 0 0 0 0 0 0 0 0 0 0 0 0 0 0 0 0 0 0 0 0 0 0 0 0 0 0 0 0 0 0 0 0 0 0 0 0 0 0 0 0 0 0 0 0 0 0 0 0 0 0 0 0 0 0 0 0 0 0 0 0 0 0 0 0 0 0 0 0 0 0 0 0 0 0 0 0 0 0 0 0 0 0 0 0 0 0 0 0 0 0 0 0 0 0 0 0 0 0 0 0 0 0 0 0 0 0 0 0 0 0 0 0 0 0 0 0 0 0 0 0 0 0 0 0 0 0 0 0 0 0 0 0 0 0 0 0 0 0 0</float_array>
          <technique_common>
            <accessor source="#Cube_009-mesh-map-1-array" count="324" stride="2">
              <param name="S" type="float"/>
              <param name="T" type="float"/>
            </accessor>
          </technique_common>
        </source>
        <vertices id="Cube_009-mesh-vertices">
          <input semantic="POSITION" source="#Cube_009-mesh-positions"/>
        </vertices>
        <triangles count="108">
          <input semantic="VERTEX" source="#Cube_009-mesh-vertices" offset="0"/>
          <input semantic="NORMAL" source="#Cube_009-mesh-normals" offset="1"/>
          <input semantic="TEXCOORD" source="#Cube_009-mesh-map-0" offset="2" set="0"/>
          <input semantic="TEXCOORD" source="#Cube_009-mesh-map-1" offset="2" set="1"/>
          <p>5 0 0 6 0 1 4 0 2 11 1 3 8 1 4 10 1 5 10 2 6 4 2 7 6 2 8 7 3 9 9 3 10 11 3 11 13 1 12 15 1 13 14 1 14 18 0 15 16 0 16 19 0 17 13 3 18 17 3 19 12 3 20 14 2 21 18 2 22 19 2 23 11 4 24 17 5 25 18 5 26 9 6 27 16 6 28 8 6 29 26 1 30 2 1 31 3 1 32 1 0 33 25 0 34 27 0 35 24 3 36 0 3 37 2 3 38 26 2 39 3 2 40 28 2 41 14 6 42 25 6 43 13 6 44 2 1 45 20 1 46 30 1 47 31 0 48 22 0 49 0 0 50 0 3 51 29 3 52 2 3 53 23 2 54 1 2 55 28 2 56 12 5 57 22 5 58 31 5 59 35 1 60 33 1 61 32 1 62 38 0 63 36 0 64 39 0 65 33 3 66 37 3 67 32 3 68 38 2 69 34 2 70 35 2 71 42 1 72 41 1 73 43 1 74 44 0 75 46 0 76 45 0 77 40 3 78 45 3 79 41 3 80 46 2 81 42 2 82 43 2 83 5 6 84 42 6 85 47 6 86 8 6 87 24 6 88 44 6 89 10 7 90 20 8 91 29 5 92 7 5 93 46 9 94 43 5 95 5 0 96 7 0 97 6 0 98 11 1 99 9 1 100 8 1 101 10 2 102 8 2 103 4 2 104 7 3 105 5 3 106 9 3 107 13 1 108 12 1 109 15 1 110 18 0 111 17 0 112 16 0 113 13 3 114 16 3 115 17 3 116 14 2 117 15 2 118 18 2 119 11 4 120 10 7 121 17 5 122 9 6 123 19 6 124 16 6 125 26 1 126 24 1 127 2 1 128 1 0 129 0 0 130 25 0 131 24 3 132 25 3 133 0 3 134 1 2 135 27 2 136 28 2 137 27 2 138 26 2 139 28 2 140 14 6 141 27 6 142 25 6 143 30 1 144 21 1 145 3 1 146 3 1 147 2 1 148 30 1 149 0 10 150 1 10 151 31 10 152 1 0 153 23 0 154 31 0 155 22 3 156 29 3 157 0 3 158 29 3 159 20 3 160 2 3 161 3 2 162 21 2 163 28 2 164 21 2 165 23 2 166 28 2 167 23 5 168 15 5 169 31 5 170 15 5 171 12 5 172 31 5 173 35 1 174 34 1 175 33 1 176 38 0 177 37 0 178 36 0 179 33 3 180 36 3 181 37 3 182 38 2 183 39 2 184 34 2 185 42 1 186 40 1 187 41 1 188 44 0 189 47 0 190 46 0 191 40 3 192 44 3 193 45 3 194 46 2 195 47 2 196 42 2 197 27 6 198 14 6 199 9 6 200 14 6 201 19 6 202 9 6 203 9 6 204 5 6 205 47 6 206 27 6 207 9 6 208 26 6 209 5 6 210 34 6 211 39 6 212 39 6 213 36 6 214 40 6 215 39 6 216 40 6 217 42 6 218 26 6 219 9 6 220 47 6 221 44 6 222 24 6 223 26 6 224 5 6 225 39 6 226 42 6 227 47 6 228 44 6 229 26 6 230 33 6 231 34 6 232 5 6 233 4 6 234 8 6 235 44 6 236 8 6 237 16 6 238 13 6 239 13 6 240 25 6 241 8 6 242 25 6 243 24 6 244 8 6 245 33 6 246 5 6 247 4 6 248 44 6 249 40 6 250 4 6 251 40 6 252 36 6 253 4 6 254 36 6 255 33 6 256 4 6 257 12 5 258 17 5 259 10 7 260 6 5 261 7 5 262 32 5 263 7 5 264 35 5 265 32 5 266 32 5 267 37 5 268 6 5 269 37 5 270 41 5 271 6 5 272 6 5 273 45 11 274 10 7 275 12 5 276 10 7 277 22 5 278 29 5 279 22 5 280 10 7 281 41 5 282 45 11 283 6 5 284 45 11 285 20 8 286 10 7 287 41 5 288 37 5 289 38 5 290 38 5 291 35 5 292 7 5 293 7 5 294 11 4 295 46 9 296 11 4 297 18 5 298 15 5 299 23 5 300 11 4 301 15 5 302 21 12 303 30 5 304 46 9 305 30 5 306 20 8 307 45 11 308 11 4 309 23 5 310 21 12 311 30 5 312 45 11 313 46 9 314 11 4 315 21 12 316 46 9 317 43 5 318 41 5 319 38 5 320 43 5 321 38 5 322 7 5 323</p>
        </triangles>
      </mesh>
    </geometry>
    <geometry id="Cube_038-mesh" name="Cube.038">
      <mesh>
        <source id="Cube_038-mesh-positions">
          <float_array id="Cube_038-mesh-positions-array" count="24">0 0 0 0 0 2 0 2 0 0 2 2 2 0 0 2 0 2 2 2 0 2 2 2</float_array>
          <technique_common>
            <accessor source="#Cube_038-mesh-positions-array" count="8" stride="3">
              <param name="X" type="float"/>
              <param name="Y" type="float"/>
              <param name="Z" type="float"/>
            </accessor>
          </technique_common>
        </source>
        <source id="Cube_038-mesh-normals">
          <float_array id="Cube_038-mesh-normals-array" count="18">-1 0 0 0 1 0 1 0 0 0 -1 0 0 0 -1 0 0 1</float_array>
          <technique_common>
            <accessor source="#Cube_038-mesh-normals-array" count="6" stride="3">
              <param name="X" type="float"/>
              <param name="Y" type="float"/>
              <param name="Z" type="float"/>
            </accessor>
          </technique_common>
        </source>
        <source id="Cube_038-mesh-map-0">
          <float_array id="Cube_038-mesh-map-0-array" count="72">0.625 0 0.375 0.25 0.375 0 0.625 0.25 0.375 0.5 0.375 0.25 0.625 0.5 0.375 0.75 0.375 0.5 0.625 0.75 0.375 1 0.375 0.75 0.375 0.5 0.125 0.75 0.125 0.5 0.875 0.5 0.625 0.75 0.625 0.5 0.625 0 0.625 0.25 0.375 0.25 0.625 0.25 0.625 0.5 0.375 0.5 0.625 0.5 0.625 0.75 0.375 0.75 0.625 0.75 0.625 1 0.375 1 0.375 0.5 0.375 0.75 0.125 0.75 0.875 0.5 0.875 0.75 0.625 0.75</float_array>
          <technique_common>
            <accessor source="#Cube_038-mesh-map-0-array" count="36" stride="2">
              <param name="S" type="float"/>
              <param name="T" type="float"/>
            </accessor>
          </technique_common>
        </source>
        <vertices id="Cube_038-mesh-vertices">
          <input semantic="POSITION" source="#Cube_038-mesh-positions"/>
        </vertices>
        <triangles count="12">
          <input semantic="VERTEX" source="#Cube_038-mesh-vertices" offset="0"/>
          <input semantic="NORMAL" source="#Cube_038-mesh-normals" offset="1"/>
          <input semantic="TEXCOORD" source="#Cube_038-mesh-map-0" offset="2" set="0"/>
          <p>1 0 0 2 0 1 0 0 2 3 1 3 6 1 4 2 1 5 7 2 6 4 2 7 6 2 8 5 3 9 0 3 10 4 3 11 6 4 12 0 4 13 2 4 14 3 5 15 5 5 16 7 5 17 1 0 18 3 0 19 2 0 20 3 1 21 7 1 22 6 1 23 7 2 24 5 2 25 4 2 26 5 3 27 1 3 28 0 3 29 6 4 30 4 4 31 0 4 32 3 5 33 1 5 34 5 5 35</p>
        </triangles>
      </mesh>
    </geometry>
    <geometry id="Cube_037-mesh" name="Cube.037">
      <mesh>
        <source id="Cube_037-mesh-positions">
          <float_array id="Cube_037-mesh-positions-array" count="24">0 0 0 0 0 2 0 2 0 0 2 2 2 0 0 2 0 2 2 2 0 2 2 2</float_array>
          <technique_common>
            <accessor source="#Cube_037-mesh-positions-array" count="8" stride="3">
              <param name="X" type="float"/>
              <param name="Y" type="float"/>
              <param name="Z" type="float"/>
            </accessor>
          </technique_common>
        </source>
        <source id="Cube_037-mesh-normals">
          <float_array id="Cube_037-mesh-normals-array" count="18">-1 0 0 0 1 0 1 0 0 0 -1 0 0 0 -1 0 0 1</float_array>
          <technique_common>
            <accessor source="#Cube_037-mesh-normals-array" count="6" stride="3">
              <param name="X" type="float"/>
              <param name="Y" type="float"/>
              <param name="Z" type="float"/>
            </accessor>
          </technique_common>
        </source>
        <source id="Cube_037-mesh-map-0">
          <float_array id="Cube_037-mesh-map-0-array" count="72">0.625 0 0.375 0.25 0.375 0 0.625 0.25 0.375 0.5 0.375 0.25 0.625 0.5 0.375 0.75 0.375 0.5 0.625 0.75 0.375 1 0.375 0.75 0.375 0.5 0.125 0.75 0.125 0.5 0.875 0.5 0.625 0.75 0.625 0.5 0.625 0 0.625 0.25 0.375 0.25 0.625 0.25 0.625 0.5 0.375 0.5 0.625 0.5 0.625 0.75 0.375 0.75 0.625 0.75 0.625 1 0.375 1 0.375 0.5 0.375 0.75 0.125 0.75 0.875 0.5 0.875 0.75 0.625 0.75</float_array>
          <technique_common>
            <accessor source="#Cube_037-mesh-map-0-array" count="36" stride="2">
              <param name="S" type="float"/>
              <param name="T" type="float"/>
            </accessor>
          </technique_common>
        </source>
        <vertices id="Cube_037-mesh-vertices">
          <input semantic="POSITION" source="#Cube_037-mesh-positions"/>
        </vertices>
        <triangles count="12">
          <input semantic="VERTEX" source="#Cube_037-mesh-vertices" offset="0"/>
          <input semantic="NORMAL" source="#Cube_037-mesh-normals" offset="1"/>
          <input semantic="TEXCOORD" source="#Cube_037-mesh-map-0" offset="2" set="0"/>
          <p>1 0 0 2 0 1 0 0 2 3 1 3 6 1 4 2 1 5 7 2 6 4 2 7 6 2 8 5 3 9 0 3 10 4 3 11 6 4 12 0 4 13 2 4 14 3 5 15 5 5 16 7 5 17 1 0 18 3 0 19 2 0 20 3 1 21 7 1 22 6 1 23 7 2 24 5 2 25 4 2 26 5 3 27 1 3 28 0 3 29 6 4 30 4 4 31 0 4 32 3 5 33 1 5 34 5 5 35</p>
        </triangles>
      </mesh>
    </geometry>
    <geometry id="Cube_056-mesh" name="Cube.056">
      <mesh>
        <source id="Cube_056-mesh-positions">
          <float_array id="Cube_056-mesh-positions-array" count="24">0 0 0 0 0 2 0 2 0 0 2 2 2 0 0 2 0 2 2 2 0 2 2 2</float_array>
          <technique_common>
            <accessor source="#Cube_056-mesh-positions-array" count="8" stride="3">
              <param name="X" type="float"/>
              <param name="Y" type="float"/>
              <param name="Z" type="float"/>
            </accessor>
          </technique_common>
        </source>
        <source id="Cube_056-mesh-normals">
          <float_array id="Cube_056-mesh-normals-array" count="18">-1 0 0 0 1 0 1 0 0 0 -1 0 0 0 -1 0 0 1</float_array>
          <technique_common>
            <accessor source="#Cube_056-mesh-normals-array" count="6" stride="3">
              <param name="X" type="float"/>
              <param name="Y" type="float"/>
              <param name="Z" type="float"/>
            </accessor>
          </technique_common>
        </source>
        <source id="Cube_056-mesh-map-0">
          <float_array id="Cube_056-mesh-map-0-array" count="72">0.625 0 0.375 0.25 0.375 0 0.625 0.25 0.375 0.5 0.375 0.25 0.625 0.5 0.375 0.75 0.375 0.5 0.625 0.75 0.375 1 0.375 0.75 0.375 0.5 0.125 0.75 0.125 0.5 0.875 0.5 0.625 0.75 0.625 0.5 0.625 0 0.625 0.25 0.375 0.25 0.625 0.25 0.625 0.5 0.375 0.5 0.625 0.5 0.625 0.75 0.375 0.75 0.625 0.75 0.625 1 0.375 1 0.375 0.5 0.375 0.75 0.125 0.75 0.875 0.5 0.875 0.75 0.625 0.75</float_array>
          <technique_common>
            <accessor source="#Cube_056-mesh-map-0-array" count="36" stride="2">
              <param name="S" type="float"/>
              <param name="T" type="float"/>
            </accessor>
          </technique_common>
        </source>
        <vertices id="Cube_056-mesh-vertices">
          <input semantic="POSITION" source="#Cube_056-mesh-positions"/>
        </vertices>
        <triangles count="12">
          <input semantic="VERTEX" source="#Cube_056-mesh-vertices" offset="0"/>
          <input semantic="NORMAL" source="#Cube_056-mesh-normals" offset="1"/>
          <input semantic="TEXCOORD" source="#Cube_056-mesh-map-0" offset="2" set="0"/>
          <p>1 0 0 2 0 1 0 0 2 3 1 3 6 1 4 2 1 5 7 2 6 4 2 7 6 2 8 5 3 9 0 3 10 4 3 11 6 4 12 0 4 13 2 4 14 3 5 15 5 5 16 7 5 17 1 0 18 3 0 19 2 0 20 3 1 21 7 1 22 6 1 23 7 2 24 5 2 25 4 2 26 5 3 27 1 3 28 0 3 29 6 4 30 4 4 31 0 4 32 3 5 33 1 5 34 5 5 35</p>
        </triangles>
      </mesh>
    </geometry>
    <geometry id="Cube_028-mesh" name="Cube.028">
      <mesh>
        <source id="Cube_028-mesh-positions">
          <float_array id="Cube_028-mesh-positions-array" count="24">0 0 0 0 0 2 0 2 0 0 2 2 2 0 0 2 0 2 2 2 0 2 2 2</float_array>
          <technique_common>
            <accessor source="#Cube_028-mesh-positions-array" count="8" stride="3">
              <param name="X" type="float"/>
              <param name="Y" type="float"/>
              <param name="Z" type="float"/>
            </accessor>
          </technique_common>
        </source>
        <source id="Cube_028-mesh-normals">
          <float_array id="Cube_028-mesh-normals-array" count="18">-1 0 0 0 1 0 1 0 0 0 -1 0 0 0 -1 0 0 1</float_array>
          <technique_common>
            <accessor source="#Cube_028-mesh-normals-array" count="6" stride="3">
              <param name="X" type="float"/>
              <param name="Y" type="float"/>
              <param name="Z" type="float"/>
            </accessor>
          </technique_common>
        </source>
        <source id="Cube_028-mesh-map-0">
          <float_array id="Cube_028-mesh-map-0-array" count="72">0.625 0 0.375 0.25 0.375 0 0.625 0.25 0.375 0.5 0.375 0.25 0.625 0.5 0.375 0.75 0.375 0.5 0.625 0.75 0.375 1 0.375 0.75 0.375 0.5 0.125 0.75 0.125 0.5 0.875 0.5 0.625 0.75 0.625 0.5 0.625 0 0.625 0.25 0.375 0.25 0.625 0.25 0.625 0.5 0.375 0.5 0.625 0.5 0.625 0.75 0.375 0.75 0.625 0.75 0.625 1 0.375 1 0.375 0.5 0.375 0.75 0.125 0.75 0.875 0.5 0.875 0.75 0.625 0.75</float_array>
          <technique_common>
            <accessor source="#Cube_028-mesh-map-0-array" count="36" stride="2">
              <param name="S" type="float"/>
              <param name="T" type="float"/>
            </accessor>
          </technique_common>
        </source>
        <vertices id="Cube_028-mesh-vertices">
          <input semantic="POSITION" source="#Cube_028-mesh-positions"/>
        </vertices>
        <triangles count="12">
          <input semantic="VERTEX" source="#Cube_028-mesh-vertices" offset="0"/>
          <input semantic="NORMAL" source="#Cube_028-mesh-normals" offset="1"/>
          <input semantic="TEXCOORD" source="#Cube_028-mesh-map-0" offset="2" set="0"/>
          <p>1 0 0 2 0 1 0 0 2 3 1 3 6 1 4 2 1 5 7 2 6 4 2 7 6 2 8 5 3 9 0 3 10 4 3 11 6 4 12 0 4 13 2 4 14 3 5 15 5 5 16 7 5 17 1 0 18 3 0 19 2 0 20 3 1 21 7 1 22 6 1 23 7 2 24 5 2 25 4 2 26 5 3 27 1 3 28 0 3 29 6 4 30 4 4 31 0 4 32 3 5 33 1 5 34 5 5 35</p>
        </triangles>
      </mesh>
    </geometry>
  </library_geometries>
  <library_visual_scenes>
    <visual_scene id="Scene" name="Scene">
      <node id="stena2" name="stena2" type="NODE">
        <matrix sid="transform">8.9425 0 0 0 0 0.09999999 0 -0.2 0 0 2 0 0 0 0 1</matrix>
        <instance_geometry url="#Cube_010-mesh" name="stena2"/>
      </node>
      <node id="stena1" name="stena1" type="NODE">
        <matrix sid="transform">8.9425 0 0 0 0 0.09999999 0 12.548 0 0 2 0 0 0 0 1</matrix>
        <instance_geometry url="#Cube_009-mesh" name="stena1"/>
      </node>
      <node id="ram_007" name="ram.007" type="NODE">
        <matrix sid="transform">8.9425 0 0 0 0 0.075 0 0 0 0 0.03 3.72 0 0 0 1</matrix>
        <instance_geometry url="#Cube_038-mesh" name="ram.007"/>
      </node>
      <node id="ram_006" name="ram.006" type="NODE">
        <matrix sid="transform">8.9425 0 0 0 0 0.075 0 12.40718 0 0 0.03 3.72 0 0 0 1</matrix>
        <instance_geometry url="#Cube_037-mesh" name="ram.006"/>
      </node>
      <node id="ram_002" name="ram.002" type="NODE">
        <matrix sid="transform">8.9425 0 0 0 0 0.075 0 0 0 0 0.03 2.9 0 0 0 1</matrix>
        <instance_geometry url="#Cube_056-mesh" name="ram.002"/>
      </node>
      <node id="ram_001" name="ram.001" type="NODE">
        <matrix sid="transform">8.9425 0 0 0 0 0.075 0 12.40718 0 0 0.03 2.9 0 0 0 1</matrix>
        <instance_geometry url="#Cube_028-mesh" name="ram.001"/>
      </node>
    </visual_scene>
  </library_visual_scenes>
  <scene>
    <instance_visual_scene url="#Scene"/>
  </scene>
</COLLADA>