<?xml version="1.0" encoding="utf-8"?>
<COLLADA xmlns="http://www.collada.org/2005/11/COLLADASchema" version="1.4.1" xmlns:xsi="http://www.w3.org/2001/XMLSchema-instance">
  <asset>
    <contributor>
      <author>Blender User</author>
      <authoring_tool>Blender 2.92.0 commit date:2021-02-24, commit time:16:25, hash:02948a2cab44</authoring_tool>
    </contributor>
    <created>2021-04-05T19:29:59</created>
    <modified>2021-04-05T19:29:59</modified>
    <unit name="meter" meter="1"/>
    <up_axis>Z_UP</up_axis>
  </asset>
  <library_effects>
    <effect id="Material_032-effect">
      <profile_COMMON>
        <technique sid="common">
          <lambert>
            <emission>
              <color sid="emission">0 0 0 1</color>
            </emission>
            <diffuse>
              <color sid="diffuse">0.8 0.8 0.8 1</color>
            </diffuse>
            <index_of_refraction>
              <float sid="ior">1.45</float>
            </index_of_refraction>
          </lambert>
        </technique>
      </profile_COMMON>
    </effect>
    <effect id="Material_031-effect">
      <profile_COMMON>
        <technique sid="common">
          <lambert>
            <emission>
              <color sid="emission">0 0 0 1</color>
            </emission>
            <diffuse>
              <color sid="diffuse">0.8 0.8 0.8 1</color>
            </diffuse>
            <index_of_refraction>
              <float sid="ior">1.45</float>
            </index_of_refraction>
          </lambert>
        </technique>
      </profile_COMMON>
    </effect>
    <effect id="Material_025-effect">
      <profile_COMMON>
        <technique sid="common">
          <lambert>
            <emission>
              <color sid="emission">0 0 0 1</color>
            </emission>
            <diffuse>
              <color sid="diffuse">0.8 0.8 0.8 1</color>
            </diffuse>
            <index_of_refraction>
              <float sid="ior">1.45</float>
            </index_of_refraction>
          </lambert>
        </technique>
      </profile_COMMON>
    </effect>
    <effect id="Material_022-effect">
      <profile_COMMON>
        <technique sid="common">
          <lambert>
            <emission>
              <color sid="emission">0 0 0 1</color>
            </emission>
            <diffuse>
              <color sid="diffuse">0.8 0.8 0.8 1</color>
            </diffuse>
            <index_of_refraction>
              <float sid="ior">1.45</float>
            </index_of_refraction>
          </lambert>
        </technique>
      </profile_COMMON>
    </effect>
  </library_effects>
  <library_images/>
  <library_materials>
    <material id="Material_032-material" name="Material.032">
      <instance_effect url="#Material_032-effect"/>
    </material>
    <material id="Material_031-material" name="Material.031">
      <instance_effect url="#Material_031-effect"/>
    </material>
    <material id="Material_025-material" name="Material.025">
      <instance_effect url="#Material_025-effect"/>
    </material>
    <material id="Material_022-material" name="Material.022">
      <instance_effect url="#Material_022-effect"/>
    </material>
  </library_materials>
  <library_geometries>
    <geometry id="Cube_039-mesh" name="Cube.039">
      <mesh>
        <source id="Cube_039-mesh-positions">
          <float_array id="Cube_039-mesh-positions-array" count="24">1 1 1 1 1 -1 1 -1 1 1 -1 -1 -1 1 1 -1 1 -1 -1 -1 1 -1 -1 -1</float_array>
          <technique_common>
            <accessor source="#Cube_039-mesh-positions-array" count="8" stride="3">
              <param name="X" type="float"/>
              <param name="Y" type="float"/>
              <param name="Z" type="float"/>
            </accessor>
          </technique_common>
        </source>
        <source id="Cube_039-mesh-normals">
          <float_array id="Cube_039-mesh-normals-array" count="18">0 0 1 0 -1 0 -1 0 0 0 0 -1 1 0 0 0 1 0</float_array>
          <technique_common>
            <accessor source="#Cube_039-mesh-normals-array" count="6" stride="3">
              <param name="X" type="float"/>
              <param name="Y" type="float"/>
              <param name="Z" type="float"/>
            </accessor>
          </technique_common>
        </source>
        <source id="Cube_039-mesh-map-0">
          <float_array id="Cube_039-mesh-map-0-array" count="72">0.875 0.5 0.625 0.75 0.625 0.5 0.625 0.75 0.375 1 0.375 0.75 0.625 0 0.375 0.25 0.375 0 0.375 0.5 0.125 0.75 0.125 0.5 0.625 0.5 0.375 0.75 0.375 0.5 0.625 0.25 0.375 0.5 0.375 0.25 0.875 0.5 0.875 0.75 0.625 0.75 0.625 0.75 0.625 1 0.375 1 0.625 0 0.625 0.25 0.375 0.25 0.375 0.5 0.375 0.75 0.125 0.75 0.625 0.5 0.625 0.75 0.375 0.75 0.625 0.25 0.625 0.5 0.375 0.5</float_array>
          <technique_common>
            <accessor source="#Cube_039-mesh-map-0-array" count="36" stride="2">
              <param name="S" type="float"/>
              <param name="T" type="float"/>
            </accessor>
          </technique_common>
        </source>
        <vertices id="Cube_039-mesh-vertices">
          <input semantic="POSITION" source="#Cube_039-mesh-positions"/>
        </vertices>
        <triangles material="Material_032-material" count="12">
          <input semantic="VERTEX" source="#Cube_039-mesh-vertices" offset="0"/>
          <input semantic="NORMAL" source="#Cube_039-mesh-normals" offset="1"/>
          <input semantic="TEXCOORD" source="#Cube_039-mesh-map-0" offset="2" set="0"/>
          <p>4 0 0 2 0 1 0 0 2 2 1 3 7 1 4 3 1 5 6 2 6 5 2 7 7 2 8 1 3 9 7 3 10 5 3 11 0 4 12 3 4 13 1 4 14 4 5 15 1 5 16 5 5 17 4 0 18 6 0 19 2 0 20 2 1 21 6 1 22 7 1 23 6 2 24 4 2 25 5 2 26 1 3 27 3 3 28 7 3 29 0 4 30 2 4 31 3 4 32 4 5 33 0 5 34 1 5 35</p>
        </triangles>
      </mesh>
    </geometry>
    <geometry id="Cube_034-mesh" name="Cube.034">
      <mesh>
        <source id="Cube_034-mesh-positions">
          <float_array id="Cube_034-mesh-positions-array" count="24">1 1 1 1 1 -1 1 -1 1 1 -1 -1 -1 1 1 -1 1 -1 -1 -1 1 -1 -1 -1</float_array>
          <technique_common>
            <accessor source="#Cube_034-mesh-positions-array" count="8" stride="3">
              <param name="X" type="float"/>
              <param name="Y" type="float"/>
              <param name="Z" type="float"/>
            </accessor>
          </technique_common>
        </source>
        <source id="Cube_034-mesh-normals">
          <float_array id="Cube_034-mesh-normals-array" count="18">0 0 1 0 -1 0 -1 0 0 0 0 -1 1 0 0 0 1 0</float_array>
          <technique_common>
            <accessor source="#Cube_034-mesh-normals-array" count="6" stride="3">
              <param name="X" type="float"/>
              <param name="Y" type="float"/>
              <param name="Z" type="float"/>
            </accessor>
          </technique_common>
        </source>
        <source id="Cube_034-mesh-map-0">
          <float_array id="Cube_034-mesh-map-0-array" count="72">0.875 0.5 0.625 0.75 0.625 0.5 0.625 0.75 0.375 1 0.375 0.75 0.625 0 0.375 0.25 0.375 0 0.375 0.5 0.125 0.75 0.125 0.5 0.625 0.5 0.375 0.75 0.375 0.5 0.625 0.25 0.375 0.5 0.375 0.25 0.875 0.5 0.875 0.75 0.625 0.75 0.625 0.75 0.625 1 0.375 1 0.625 0 0.625 0.25 0.375 0.25 0.375 0.5 0.375 0.75 0.125 0.75 0.625 0.5 0.625 0.75 0.375 0.75 0.625 0.25 0.625 0.5 0.375 0.5</float_array>
          <technique_common>
            <accessor source="#Cube_034-mesh-map-0-array" count="36" stride="2">
              <param name="S" type="float"/>
              <param name="T" type="float"/>
            </accessor>
          </technique_common>
        </source>
        <vertices id="Cube_034-mesh-vertices">
          <input semantic="POSITION" source="#Cube_034-mesh-positions"/>
        </vertices>
        <triangles material="Material_031-material" count="12">
          <input semantic="VERTEX" source="#Cube_034-mesh-vertices" offset="0"/>
          <input semantic="NORMAL" source="#Cube_034-mesh-normals" offset="1"/>
          <input semantic="TEXCOORD" source="#Cube_034-mesh-map-0" offset="2" set="0"/>
          <p>4 0 0 2 0 1 0 0 2 2 1 3 7 1 4 3 1 5 6 2 6 5 2 7 7 2 8 1 3 9 7 3 10 5 3 11 0 4 12 3 4 13 1 4 14 4 5 15 1 5 16 5 5 17 4 0 18 6 0 19 2 0 20 2 1 21 6 1 22 7 1 23 6 2 24 4 2 25 5 2 26 1 3 27 3 3 28 7 3 29 0 4 30 2 4 31 3 4 32 4 5 33 0 5 34 1 5 35</p>
        </triangles>
      </mesh>
    </geometry>
    <geometry id="Cube_157-mesh" name="Cube.157">
      <mesh>
        <source id="Cube_157-mesh-positions">
          <float_array id="Cube_157-mesh-positions-array" count="24">1 1 1 1 1 -1 1 -1 1 1 -1 -1 -1 1 1 -1 1 -1 -1 -1 1 -1 -1 -1</float_array>
          <technique_common>
            <accessor source="#Cube_157-mesh-positions-array" count="8" stride="3">
              <param name="X" type="float"/>
              <param name="Y" type="float"/>
              <param name="Z" type="float"/>
            </accessor>
          </technique_common>
        </source>
        <source id="Cube_157-mesh-normals">
          <float_array id="Cube_157-mesh-normals-array" count="18">0 0 1 0 -1 0 -1 0 0 0 0 -1 1 0 0 0 1 0</float_array>
          <technique_common>
            <accessor source="#Cube_157-mesh-normals-array" count="6" stride="3">
              <param name="X" type="float"/>
              <param name="Y" type="float"/>
              <param name="Z" type="float"/>
            </accessor>
          </technique_common>
        </source>
        <source id="Cube_157-mesh-map-0">
          <float_array id="Cube_157-mesh-map-0-array" count="72">0.875 0.5 0.625 0.75 0.625 0.5 0.625 0.75 0.375 1 0.375 0.75 0.625 0 0.375 0.25 0.375 0 0.375 0.5 0.125 0.75 0.125 0.5 0.625 0.5 0.375 0.75 0.375 0.5 0.625 0.25 0.375 0.5 0.375 0.25 0.875 0.5 0.875 0.75 0.625 0.75 0.625 0.75 0.625 1 0.375 1 0.625 0 0.625 0.25 0.375 0.25 0.375 0.5 0.375 0.75 0.125 0.75 0.625 0.5 0.625 0.75 0.375 0.75 0.625 0.25 0.625 0.5 0.375 0.5</float_array>
          <technique_common>
            <accessor source="#Cube_157-mesh-map-0-array" count="36" stride="2">
              <param name="S" type="float"/>
              <param name="T" type="float"/>
            </accessor>
          </technique_common>
        </source>
        <vertices id="Cube_157-mesh-vertices">
          <input semantic="POSITION" source="#Cube_157-mesh-positions"/>
        </vertices>
        <triangles count="12">
          <input semantic="VERTEX" source="#Cube_157-mesh-vertices" offset="0"/>
          <input semantic="NORMAL" source="#Cube_157-mesh-normals" offset="1"/>
          <input semantic="TEXCOORD" source="#Cube_157-mesh-map-0" offset="2" set="0"/>
          <p>4 0 0 2 0 1 0 0 2 2 1 3 7 1 4 3 1 5 6 2 6 5 2 7 7 2 8 1 3 9 7 3 10 5 3 11 0 4 12 3 4 13 1 4 14 4 5 15 1 5 16 5 5 17 4 0 18 6 0 19 2 0 20 2 1 21 6 1 22 7 1 23 6 2 24 4 2 25 5 2 26 1 3 27 3 3 28 7 3 29 0 4 30 2 4 31 3 4 32 4 5 33 0 5 34 1 5 35</p>
        </triangles>
      </mesh>
    </geometry>
    <geometry id="Cube_154-mesh" name="Cube.154">
      <mesh>
        <source id="Cube_154-mesh-positions">
          <float_array id="Cube_154-mesh-positions-array" count="24">1 1 1 1 1 -1 1 -1 1 1 -1 -1 -1 1 1 -1 1 -1 -1 -1 1 -1 -1 -1</float_array>
          <technique_common>
            <accessor source="#Cube_154-mesh-positions-array" count="8" stride="3">
              <param name="X" type="float"/>
              <param name="Y" type="float"/>
              <param name="Z" type="float"/>
            </accessor>
          </technique_common>
        </source>
        <source id="Cube_154-mesh-normals">
          <float_array id="Cube_154-mesh-normals-array" count="18">0 0 1 0 -1 0 -1 0 0 0 0 -1 1 0 0 0 1 0</float_array>
          <technique_common>
            <accessor source="#Cube_154-mesh-normals-array" count="6" stride="3">
              <param name="X" type="float"/>
              <param name="Y" type="float"/>
              <param name="Z" type="float"/>
            </accessor>
          </technique_common>
        </source>
        <source id="Cube_154-mesh-map-0">
          <float_array id="Cube_154-mesh-map-0-array" count="72">0.875 0.5 0.625 0.75 0.625 0.5 0.625 0.75 0.375 1 0.375 0.75 0.625 0 0.375 0.25 0.375 0 0.375 0.5 0.125 0.75 0.125 0.5 0.625 0.5 0.375 0.75 0.375 0.5 0.625 0.25 0.375 0.5 0.375 0.25 0.875 0.5 0.875 0.75 0.625 0.75 0.625 0.75 0.625 1 0.375 1 0.625 0 0.625 0.25 0.375 0.25 0.375 0.5 0.375 0.75 0.125 0.75 0.625 0.5 0.625 0.75 0.375 0.75 0.625 0.25 0.625 0.5 0.375 0.5</float_array>
          <technique_common>
            <accessor source="#Cube_154-mesh-map-0-array" count="36" stride="2">
              <param name="S" type="float"/>
              <param name="T" type="float"/>
            </accessor>
          </technique_common>
        </source>
        <vertices id="Cube_154-mesh-vertices">
          <input semantic="POSITION" source="#Cube_154-mesh-positions"/>
        </vertices>
        <triangles count="12">
          <input semantic="VERTEX" source="#Cube_154-mesh-vertices" offset="0"/>
          <input semantic="NORMAL" source="#Cube_154-mesh-normals" offset="1"/>
          <input semantic="TEXCOORD" source="#Cube_154-mesh-map-0" offset="2" set="0"/>
          <p>4 0 0 2 0 1 0 0 2 2 1 3 7 1 4 3 1 5 6 2 6 5 2 7 7 2 8 1 3 9 7 3 10 5 3 11 0 4 12 3 4 13 1 4 14 4 5 15 1 5 16 5 5 17 4 0 18 6 0 19 2 0 20 2 1 21 6 1 22 7 1 23 6 2 24 4 2 25 5 2 26 1 3 27 3 3 28 7 3 29 0 4 30 2 4 31 3 4 32 4 5 33 0 5 34 1 5 35</p>
        </triangles>
      </mesh>
    </geometry>
    <geometry id="Cube_153-mesh" name="Cube.153">
      <mesh>
        <source id="Cube_153-mesh-positions">
          <float_array id="Cube_153-mesh-positions-array" count="24">1 1 1 1 1 -1 1 -1 1 1 -1 -1 -1 1 1 -1 1 -1 -1 -1 1 -1 -1 -1</float_array>
          <technique_common>
            <accessor source="#Cube_153-mesh-positions-array" count="8" stride="3">
              <param name="X" type="float"/>
              <param name="Y" type="float"/>
              <param name="Z" type="float"/>
            </accessor>
          </technique_common>
        </source>
        <source id="Cube_153-mesh-normals">
          <float_array id="Cube_153-mesh-normals-array" count="18">0 0 1 0 -1 0 -1 0 0 0 0 -1 1 0 0 0 1 0</float_array>
          <technique_common>
            <accessor source="#Cube_153-mesh-normals-array" count="6" stride="3">
              <param name="X" type="float"/>
              <param name="Y" type="float"/>
              <param name="Z" type="float"/>
            </accessor>
          </technique_common>
        </source>
        <source id="Cube_153-mesh-map-0">
          <float_array id="Cube_153-mesh-map-0-array" count="72">0.875 0.5 0.625 0.75 0.625 0.5 0.625 0.75 0.375 1 0.375 0.75 0.625 0 0.375 0.25 0.375 0 0.375 0.5 0.125 0.75 0.125 0.5 0.625 0.5 0.375 0.75 0.375 0.5 0.625 0.25 0.375 0.5 0.375 0.25 0.875 0.5 0.875 0.75 0.625 0.75 0.625 0.75 0.625 1 0.375 1 0.625 0 0.625 0.25 0.375 0.25 0.375 0.5 0.375 0.75 0.125 0.75 0.625 0.5 0.625 0.75 0.375 0.75 0.625 0.25 0.625 0.5 0.375 0.5</float_array>
          <technique_common>
            <accessor source="#Cube_153-mesh-map-0-array" count="36" stride="2">
              <param name="S" type="float"/>
              <param name="T" type="float"/>
            </accessor>
          </technique_common>
        </source>
        <vertices id="Cube_153-mesh-vertices">
          <input semantic="POSITION" source="#Cube_153-mesh-positions"/>
        </vertices>
        <triangles material="Material_025-material" count="12">
          <input semantic="VERTEX" source="#Cube_153-mesh-vertices" offset="0"/>
          <input semantic="NORMAL" source="#Cube_153-mesh-normals" offset="1"/>
          <input semantic="TEXCOORD" source="#Cube_153-mesh-map-0" offset="2" set="0"/>
          <p>4 0 0 2 0 1 0 0 2 2 1 3 7 1 4 3 1 5 6 2 6 5 2 7 7 2 8 1 3 9 7 3 10 5 3 11 0 4 12 3 4 13 1 4 14 4 5 15 1 5 16 5 5 17 4 0 18 6 0 19 2 0 20 2 1 21 6 1 22 7 1 23 6 2 24 4 2 25 5 2 26 1 3 27 3 3 28 7 3 29 0 4 30 2 4 31 3 4 32 4 5 33 0 5 34 1 5 35</p>
        </triangles>
      </mesh>
    </geometry>
    <geometry id="Cube_150-mesh" name="Cube.150">
      <mesh>
        <source id="Cube_150-mesh-positions">
          <float_array id="Cube_150-mesh-positions-array" count="24">1 1 1 1 1 -1 1 -1 1 1 -1 -1 -1 1 1 -1 1 -1 -1 -1 1 -1 -1 -1</float_array>
          <technique_common>
            <accessor source="#Cube_150-mesh-positions-array" count="8" stride="3">
              <param name="X" type="float"/>
              <param name="Y" type="float"/>
              <param name="Z" type="float"/>
            </accessor>
          </technique_common>
        </source>
        <source id="Cube_150-mesh-normals">
          <float_array id="Cube_150-mesh-normals-array" count="18">0 0 1 0 -1 0 -1 0 0 0 0 -1 1 0 0 0 1 0</float_array>
          <technique_common>
            <accessor source="#Cube_150-mesh-normals-array" count="6" stride="3">
              <param name="X" type="float"/>
              <param name="Y" type="float"/>
              <param name="Z" type="float"/>
            </accessor>
          </technique_common>
        </source>
        <source id="Cube_150-mesh-map-0">
          <float_array id="Cube_150-mesh-map-0-array" count="72">0.875 0.5 0.625 0.75 0.625 0.5 0.625 0.75 0.375 1 0.375 0.75 0.625 0 0.375 0.25 0.375 0 0.375 0.5 0.125 0.75 0.125 0.5 0.625 0.5 0.375 0.75 0.375 0.5 0.625 0.25 0.375 0.5 0.375 0.25 0.875 0.5 0.875 0.75 0.625 0.75 0.625 0.75 0.625 1 0.375 1 0.625 0 0.625 0.25 0.375 0.25 0.375 0.5 0.375 0.75 0.125 0.75 0.625 0.5 0.625 0.75 0.375 0.75 0.625 0.25 0.625 0.5 0.375 0.5</float_array>
          <technique_common>
            <accessor source="#Cube_150-mesh-map-0-array" count="36" stride="2">
              <param name="S" type="float"/>
              <param name="T" type="float"/>
            </accessor>
          </technique_common>
        </source>
        <vertices id="Cube_150-mesh-vertices">
          <input semantic="POSITION" source="#Cube_150-mesh-positions"/>
        </vertices>
        <triangles material="Material_022-material" count="12">
          <input semantic="VERTEX" source="#Cube_150-mesh-vertices" offset="0"/>
          <input semantic="NORMAL" source="#Cube_150-mesh-normals" offset="1"/>
          <input semantic="TEXCOORD" source="#Cube_150-mesh-map-0" offset="2" set="0"/>
          <p>4 0 0 2 0 1 0 0 2 2 1 3 7 1 4 3 1 5 6 2 6 5 2 7 7 2 8 1 3 9 7 3 10 5 3 11 0 4 12 3 4 13 1 4 14 4 5 15 1 5 16 5 5 17 4 0 18 6 0 19 2 0 20 2 1 21 6 1 22 7 1 23 6 2 24 4 2 25 5 2 26 1 3 27 3 3 28 7 3 29 0 4 30 2 4 31 3 4 32 4 5 33 0 5 34 1 5 35</p>
        </triangles>
      </mesh>
    </geometry>
    <geometry id="Cube_145-mesh" name="Cube.145">
      <mesh>
        <source id="Cube_145-mesh-positions">
          <float_array id="Cube_145-mesh-positions-array" count="24">1 1 1 1 1 -1 1 -1 1 1 -1 -1 -1 1 1 -1 1 -1 -1 -1 1 -1 -1 -1</float_array>
          <technique_common>
            <accessor source="#Cube_145-mesh-positions-array" count="8" stride="3">
              <param name="X" type="float"/>
              <param name="Y" type="float"/>
              <param name="Z" type="float"/>
            </accessor>
          </technique_common>
        </source>
        <source id="Cube_145-mesh-normals">
          <float_array id="Cube_145-mesh-normals-array" count="18">0 0 1 0 -1 0 -1 0 0 0 0 -1 1 0 0 0 1 0</float_array>
          <technique_common>
            <accessor source="#Cube_145-mesh-normals-array" count="6" stride="3">
              <param name="X" type="float"/>
              <param name="Y" type="float"/>
              <param name="Z" type="float"/>
            </accessor>
          </technique_common>
        </source>
        <source id="Cube_145-mesh-map-0">
          <float_array id="Cube_145-mesh-map-0-array" count="72">0.875 0.5 0.625 0.75 0.625 0.5 0.625 0.75 0.375 1 0.375 0.75 0.625 0 0.375 0.25 0.375 0 0.375 0.5 0.125 0.75 0.125 0.5 0.625 0.5 0.375 0.75 0.375 0.5 0.625 0.25 0.375 0.5 0.375 0.25 0.875 0.5 0.875 0.75 0.625 0.75 0.625 0.75 0.625 1 0.375 1 0.625 0 0.625 0.25 0.375 0.25 0.375 0.5 0.375 0.75 0.125 0.75 0.625 0.5 0.625 0.75 0.375 0.75 0.625 0.25 0.625 0.5 0.375 0.5</float_array>
          <technique_common>
            <accessor source="#Cube_145-mesh-map-0-array" count="36" stride="2">
              <param name="S" type="float"/>
              <param name="T" type="float"/>
            </accessor>
          </technique_common>
        </source>
        <vertices id="Cube_145-mesh-vertices">
          <input semantic="POSITION" source="#Cube_145-mesh-positions"/>
        </vertices>
        <triangles count="12">
          <input semantic="VERTEX" source="#Cube_145-mesh-vertices" offset="0"/>
          <input semantic="NORMAL" source="#Cube_145-mesh-normals" offset="1"/>
          <input semantic="TEXCOORD" source="#Cube_145-mesh-map-0" offset="2" set="0"/>
          <p>4 0 0 2 0 1 0 0 2 2 1 3 7 1 4 3 1 5 6 2 6 5 2 7 7 2 8 1 3 9 7 3 10 5 3 11 0 4 12 3 4 13 1 4 14 4 5 15 1 5 16 5 5 17 4 0 18 6 0 19 2 0 20 2 1 21 6 1 22 7 1 23 6 2 24 4 2 25 5 2 26 1 3 27 3 3 28 7 3 29 0 4 30 2 4 31 3 4 32 4 5 33 0 5 34 1 5 35</p>
        </triangles>
      </mesh>
    </geometry>
    <geometry id="Cube_142-mesh" name="Cube.142">
      <mesh>
        <source id="Cube_142-mesh-positions">
          <float_array id="Cube_142-mesh-positions-array" count="24">1 1 1 1 1 -1 1 -1 1 1 -1 -1 -1 1 1 -1 1 -1 -1 -1 1 -1 -1 -1</float_array>
          <technique_common>
            <accessor source="#Cube_142-mesh-positions-array" count="8" stride="3">
              <param name="X" type="float"/>
              <param name="Y" type="float"/>
              <param name="Z" type="float"/>
            </accessor>
          </technique_common>
        </source>
        <source id="Cube_142-mesh-normals">
          <float_array id="Cube_142-mesh-normals-array" count="18">0 0 1 0 -1 0 -1 0 0 0 0 -1 1 0 0 0 1 0</float_array>
          <technique_common>
            <accessor source="#Cube_142-mesh-normals-array" count="6" stride="3">
              <param name="X" type="float"/>
              <param name="Y" type="float"/>
              <param name="Z" type="float"/>
            </accessor>
          </technique_common>
        </source>
        <source id="Cube_142-mesh-map-0">
          <float_array id="Cube_142-mesh-map-0-array" count="72">0.875 0.5 0.625 0.75 0.625 0.5 0.625 0.75 0.375 1 0.375 0.75 0.625 0 0.375 0.25 0.375 0 0.375 0.5 0.125 0.75 0.125 0.5 0.625 0.5 0.375 0.75 0.375 0.5 0.625 0.25 0.375 0.5 0.375 0.25 0.875 0.5 0.875 0.75 0.625 0.75 0.625 0.75 0.625 1 0.375 1 0.625 0 0.625 0.25 0.375 0.25 0.375 0.5 0.375 0.75 0.125 0.75 0.625 0.5 0.625 0.75 0.375 0.75 0.625 0.25 0.625 0.5 0.375 0.5</float_array>
          <technique_common>
            <accessor source="#Cube_142-mesh-map-0-array" count="36" stride="2">
              <param name="S" type="float"/>
              <param name="T" type="float"/>
            </accessor>
          </technique_common>
        </source>
        <vertices id="Cube_142-mesh-vertices">
          <input semantic="POSITION" source="#Cube_142-mesh-positions"/>
        </vertices>
        <triangles count="12">
          <input semantic="VERTEX" source="#Cube_142-mesh-vertices" offset="0"/>
          <input semantic="NORMAL" source="#Cube_142-mesh-normals" offset="1"/>
          <input semantic="TEXCOORD" source="#Cube_142-mesh-map-0" offset="2" set="0"/>
          <p>4 0 0 2 0 1 0 0 2 2 1 3 7 1 4 3 1 5 6 2 6 5 2 7 7 2 8 1 3 9 7 3 10 5 3 11 0 4 12 3 4 13 1 4 14 4 5 15 1 5 16 5 5 17 4 0 18 6 0 19 2 0 20 2 1 21 6 1 22 7 1 23 6 2 24 4 2 25 5 2 26 1 3 27 3 3 28 7 3 29 0 4 30 2 4 31 3 4 32 4 5 33 0 5 34 1 5 35</p>
        </triangles>
      </mesh>
    </geometry>
    <geometry id="Cube_136-mesh" name="Cube.136">
      <mesh>
        <source id="Cube_136-mesh-positions">
          <float_array id="Cube_136-mesh-positions-array" count="24">1 1 1 1 1 -1 1 -1 1 1 -1 -1 -1 1 1 -1 1 -1 -1 -1 1 -1 -1 -1</float_array>
          <technique_common>
            <accessor source="#Cube_136-mesh-positions-array" count="8" stride="3">
              <param name="X" type="float"/>
              <param name="Y" type="float"/>
              <param name="Z" type="float"/>
            </accessor>
          </technique_common>
        </source>
        <source id="Cube_136-mesh-normals">
          <float_array id="Cube_136-mesh-normals-array" count="18">0 0 1 0 -1 0 -1 0 0 0 0 -1 1 0 0 0 1 0</float_array>
          <technique_common>
            <accessor source="#Cube_136-mesh-normals-array" count="6" stride="3">
              <param name="X" type="float"/>
              <param name="Y" type="float"/>
              <param name="Z" type="float"/>
            </accessor>
          </technique_common>
        </source>
        <source id="Cube_136-mesh-map-0">
          <float_array id="Cube_136-mesh-map-0-array" count="72">0.875 0.5 0.625 0.75 0.625 0.5 0.625 0.75 0.375 1 0.375 0.75 0.625 0 0.375 0.25 0.375 0 0.375 0.5 0.125 0.75 0.125 0.5 0.625 0.5 0.375 0.75 0.375 0.5 0.625 0.25 0.375 0.5 0.375 0.25 0.875 0.5 0.875 0.75 0.625 0.75 0.625 0.75 0.625 1 0.375 1 0.625 0 0.625 0.25 0.375 0.25 0.375 0.5 0.375 0.75 0.125 0.75 0.625 0.5 0.625 0.75 0.375 0.75 0.625 0.25 0.625 0.5 0.375 0.5</float_array>
          <technique_common>
            <accessor source="#Cube_136-mesh-map-0-array" count="36" stride="2">
              <param name="S" type="float"/>
              <param name="T" type="float"/>
            </accessor>
          </technique_common>
        </source>
        <vertices id="Cube_136-mesh-vertices">
          <input semantic="POSITION" source="#Cube_136-mesh-positions"/>
        </vertices>
        <triangles count="12">
          <input semantic="VERTEX" source="#Cube_136-mesh-vertices" offset="0"/>
          <input semantic="NORMAL" source="#Cube_136-mesh-normals" offset="1"/>
          <input semantic="TEXCOORD" source="#Cube_136-mesh-map-0" offset="2" set="0"/>
          <p>4 0 0 2 0 1 0 0 2 2 1 3 7 1 4 3 1 5 6 2 6 5 2 7 7 2 8 1 3 9 7 3 10 5 3 11 0 4 12 3 4 13 1 4 14 4 5 15 1 5 16 5 5 17 4 0 18 6 0 19 2 0 20 2 1 21 6 1 22 7 1 23 6 2 24 4 2 25 5 2 26 1 3 27 3 3 28 7 3 29 0 4 30 2 4 31 3 4 32 4 5 33 0 5 34 1 5 35</p>
        </triangles>
      </mesh>
    </geometry>
    <geometry id="Cube_134-mesh" name="Cube.134">
      <mesh>
        <source id="Cube_134-mesh-positions">
          <float_array id="Cube_134-mesh-positions-array" count="24">1 1 1 1 1 -1 1 -1 1 1 -1 -1 -1 1 1 -1 1 -1 -1 -1 1 -1 -1 -1</float_array>
          <technique_common>
            <accessor source="#Cube_134-mesh-positions-array" count="8" stride="3">
              <param name="X" type="float"/>
              <param name="Y" type="float"/>
              <param name="Z" type="float"/>
            </accessor>
          </technique_common>
        </source>
        <source id="Cube_134-mesh-normals">
          <float_array id="Cube_134-mesh-normals-array" count="18">0 0 1 0 -1 0 -1 0 0 0 0 -1 1 0 0 0 1 0</float_array>
          <technique_common>
            <accessor source="#Cube_134-mesh-normals-array" count="6" stride="3">
              <param name="X" type="float"/>
              <param name="Y" type="float"/>
              <param name="Z" type="float"/>
            </accessor>
          </technique_common>
        </source>
        <source id="Cube_134-mesh-map-0">
          <float_array id="Cube_134-mesh-map-0-array" count="72">0.875 0.5 0.625 0.75 0.625 0.5 0.625 0.75 0.375 1 0.375 0.75 0.625 0 0.375 0.25 0.375 0 0.375 0.5 0.125 0.75 0.125 0.5 0.625 0.5 0.375 0.75 0.375 0.5 0.625 0.25 0.375 0.5 0.375 0.25 0.875 0.5 0.875 0.75 0.625 0.75 0.625 0.75 0.625 1 0.375 1 0.625 0 0.625 0.25 0.375 0.25 0.375 0.5 0.375 0.75 0.125 0.75 0.625 0.5 0.625 0.75 0.375 0.75 0.625 0.25 0.625 0.5 0.375 0.5</float_array>
          <technique_common>
            <accessor source="#Cube_134-mesh-map-0-array" count="36" stride="2">
              <param name="S" type="float"/>
              <param name="T" type="float"/>
            </accessor>
          </technique_common>
        </source>
        <vertices id="Cube_134-mesh-vertices">
          <input semantic="POSITION" source="#Cube_134-mesh-positions"/>
        </vertices>
        <triangles count="12">
          <input semantic="VERTEX" source="#Cube_134-mesh-vertices" offset="0"/>
          <input semantic="NORMAL" source="#Cube_134-mesh-normals" offset="1"/>
          <input semantic="TEXCOORD" source="#Cube_134-mesh-map-0" offset="2" set="0"/>
          <p>4 0 0 2 0 1 0 0 2 2 1 3 7 1 4 3 1 5 6 2 6 5 2 7 7 2 8 1 3 9 7 3 10 5 3 11 0 4 12 3 4 13 1 4 14 4 5 15 1 5 16 5 5 17 4 0 18 6 0 19 2 0 20 2 1 21 6 1 22 7 1 23 6 2 24 4 2 25 5 2 26 1 3 27 3 3 28 7 3 29 0 4 30 2 4 31 3 4 32 4 5 33 0 5 34 1 5 35</p>
        </triangles>
      </mesh>
    </geometry>
    <geometry id="Cube_139-mesh" name="Cube.139">
      <mesh>
        <source id="Cube_139-mesh-positions">
          <float_array id="Cube_139-mesh-positions-array" count="24">1 1 1 1 1 -1 1 -1 1 1 -1 -1 -1 1 1 -1 1 -1 -1 -1 1 -1 -1 -1</float_array>
          <technique_common>
            <accessor source="#Cube_139-mesh-positions-array" count="8" stride="3">
              <param name="X" type="float"/>
              <param name="Y" type="float"/>
              <param name="Z" type="float"/>
            </accessor>
          </technique_common>
        </source>
        <source id="Cube_139-mesh-normals">
          <float_array id="Cube_139-mesh-normals-array" count="18">0 0 1 0 -1 0 -1 0 0 0 0 -1 1 0 0 0 1 0</float_array>
          <technique_common>
            <accessor source="#Cube_139-mesh-normals-array" count="6" stride="3">
              <param name="X" type="float"/>
              <param name="Y" type="float"/>
              <param name="Z" type="float"/>
            </accessor>
          </technique_common>
        </source>
        <source id="Cube_139-mesh-map-0">
          <float_array id="Cube_139-mesh-map-0-array" count="72">0.875 0.5 0.625 0.75 0.625 0.5 0.625 0.75 0.375 1 0.375 0.75 0.625 0 0.375 0.25 0.375 0 0.375 0.5 0.125 0.75 0.125 0.5 0.625 0.5 0.375 0.75 0.375 0.5 0.625 0.25 0.375 0.5 0.375 0.25 0.875 0.5 0.875 0.75 0.625 0.75 0.625 0.75 0.625 1 0.375 1 0.625 0 0.625 0.25 0.375 0.25 0.375 0.5 0.375 0.75 0.125 0.75 0.625 0.5 0.625 0.75 0.375 0.75 0.625 0.25 0.625 0.5 0.375 0.5</float_array>
          <technique_common>
            <accessor source="#Cube_139-mesh-map-0-array" count="36" stride="2">
              <param name="S" type="float"/>
              <param name="T" type="float"/>
            </accessor>
          </technique_common>
        </source>
        <vertices id="Cube_139-mesh-vertices">
          <input semantic="POSITION" source="#Cube_139-mesh-positions"/>
        </vertices>
        <triangles count="12">
          <input semantic="VERTEX" source="#Cube_139-mesh-vertices" offset="0"/>
          <input semantic="NORMAL" source="#Cube_139-mesh-normals" offset="1"/>
          <input semantic="TEXCOORD" source="#Cube_139-mesh-map-0" offset="2" set="0"/>
          <p>4 0 0 2 0 1 0 0 2 2 1 3 7 1 4 3 1 5 6 2 6 5 2 7 7 2 8 1 3 9 7 3 10 5 3 11 0 4 12 3 4 13 1 4 14 4 5 15 1 5 16 5 5 17 4 0 18 6 0 19 2 0 20 2 1 21 6 1 22 7 1 23 6 2 24 4 2 25 5 2 26 1 3 27 3 3 28 7 3 29 0 4 30 2 4 31 3 4 32 4 5 33 0 5 34 1 5 35</p>
        </triangles>
      </mesh>
    </geometry>
    <geometry id="Cube_032-mesh" name="Cube.032">
      <mesh>
        <source id="Cube_032-mesh-positions">
          <float_array id="Cube_032-mesh-positions-array" count="24">1 1 1 1 1 -1 1 -1 1 1 -1 -1 -1 1 1 -1 1 -1 -1 -1 1 -1 -1 -1</float_array>
          <technique_common>
            <accessor source="#Cube_032-mesh-positions-array" count="8" stride="3">
              <param name="X" type="float"/>
              <param name="Y" type="float"/>
              <param name="Z" type="float"/>
            </accessor>
          </technique_common>
        </source>
        <source id="Cube_032-mesh-normals">
          <float_array id="Cube_032-mesh-normals-array" count="18">0 0 1 0 -1 0 -1 0 0 0 0 -1 1 0 0 0 1 0</float_array>
          <technique_common>
            <accessor source="#Cube_032-mesh-normals-array" count="6" stride="3">
              <param name="X" type="float"/>
              <param name="Y" type="float"/>
              <param name="Z" type="float"/>
            </accessor>
          </technique_common>
        </source>
        <source id="Cube_032-mesh-map-0">
          <float_array id="Cube_032-mesh-map-0-array" count="72">0.875 0.5 0.625 0.75 0.625 0.5 0.625 0.75 0.375 1 0.375 0.75 0.625 0 0.375 0.25 0.375 0 0.375 0.5 0.125 0.75 0.125 0.5 0.625 0.5 0.375 0.75 0.375 0.5 0.625 0.25 0.375 0.5 0.375 0.25 0.875 0.5 0.875 0.75 0.625 0.75 0.625 0.75 0.625 1 0.375 1 0.625 0 0.625 0.25 0.375 0.25 0.375 0.5 0.375 0.75 0.125 0.75 0.625 0.5 0.625 0.75 0.375 0.75 0.625 0.25 0.625 0.5 0.375 0.5</float_array>
          <technique_common>
            <accessor source="#Cube_032-mesh-map-0-array" count="36" stride="2">
              <param name="S" type="float"/>
              <param name="T" type="float"/>
            </accessor>
          </technique_common>
        </source>
        <vertices id="Cube_032-mesh-vertices">
          <input semantic="POSITION" source="#Cube_032-mesh-positions"/>
        </vertices>
        <triangles count="12">
          <input semantic="VERTEX" source="#Cube_032-mesh-vertices" offset="0"/>
          <input semantic="NORMAL" source="#Cube_032-mesh-normals" offset="1"/>
          <input semantic="TEXCOORD" source="#Cube_032-mesh-map-0" offset="2" set="0"/>
          <p>4 0 0 2 0 1 0 0 2 2 1 3 7 1 4 3 1 5 6 2 6 5 2 7 7 2 8 1 3 9 7 3 10 5 3 11 0 4 12 3 4 13 1 4 14 4 5 15 1 5 16 5 5 17 4 0 18 6 0 19 2 0 20 2 1 21 6 1 22 7 1 23 6 2 24 4 2 25 5 2 26 1 3 27 3 3 28 7 3 29 0 4 30 2 4 31 3 4 32 4 5 33 0 5 34 1 5 35</p>
        </triangles>
      </mesh>
    </geometry>
  </library_geometries>
  <library_visual_scenes>
    <visual_scene id="Scene" name="Scene">
      <node id="Cube_094" name="Cube.094" type="NODE">
        <matrix sid="transform">-4.37114e-11 -0.35 0 16.72 0.001 -1.5299e-8 0 12.648 0 0 0.35 3.34 0 0 0 1</matrix>
        <instance_geometry url="#Cube_039-mesh" name="Cube.094">
          <bind_material>
            <technique_common>
              <instance_material symbol="Material_032-material" target="#Material_032-material">
                <bind_vertex_input semantic="UVMap" input_semantic="TEXCOORD" input_set="0"/>
              </instance_material>
            </technique_common>
          </bind_material>
        </instance_geometry>
      </node>
      <node id="Cube_093" name="Cube.093" type="NODE">
        <matrix sid="transform">-4.37114e-11 -0.35 0 15.96 0.001 -1.5299e-8 0 12.648 0 0 0.35 3.34 0 0 0 1</matrix>
        <instance_geometry url="#Cube_034-mesh" name="Cube.093">
          <bind_material>
            <technique_common>
              <instance_material symbol="Material_031-material" target="#Material_031-material">
                <bind_vertex_input semantic="UVMap" input_semantic="TEXCOORD" input_set="0"/>
              </instance_material>
            </technique_common>
          </bind_material>
        </instance_geometry>
      </node>
      <node id="Cube_090" name="Cube.090" type="NODE">
        <matrix sid="transform">-4.37114e-11 -0.35 0 4.789281 0.001 -1.5299e-8 0 -0.1 0 0 0.35 3.341213 0 0 0 1</matrix>
        <instance_geometry url="#Cube_157-mesh" name="Cube.090"/>
      </node>
      <node id="Cube_087" name="Cube.087" type="NODE">
        <matrix sid="transform">-4.37114e-11 -0.35 0 4.029282 0.001 -1.5299e-8 0 -0.1 0 0 0.35 3.34 0 0 0 1</matrix>
        <instance_geometry url="#Cube_154-mesh" name="Cube.087"/>
      </node>
      <node id="Cube_086" name="Cube.086" type="NODE">
        <matrix sid="transform">-4.37114e-11 -0.35 0 4.029282 0.001 -1.5299e-8 0 12.648 0 0 0.35 3.34 0 0 0 1</matrix>
        <instance_geometry url="#Cube_153-mesh" name="Cube.086">
          <bind_material>
            <technique_common>
              <instance_material symbol="Material_025-material" target="#Material_025-material">
                <bind_vertex_input semantic="UVMap" input_semantic="TEXCOORD" input_set="0"/>
              </instance_material>
            </technique_common>
          </bind_material>
        </instance_geometry>
      </node>
      <node id="Cube_083" name="Cube.083" type="NODE">
        <matrix sid="transform">-4.37114e-11 -0.35 0 4.789281 0.001 -1.5299e-8 0 12.648 0 0 0.35 3.34 0 0 0 1</matrix>
        <instance_geometry url="#Cube_150-mesh" name="Cube.083">
          <bind_material>
            <technique_common>
              <instance_material symbol="Material_022-material" target="#Material_022-material">
                <bind_vertex_input semantic="UVMap" input_semantic="TEXCOORD" input_set="0"/>
              </instance_material>
            </technique_common>
          </bind_material>
        </instance_geometry>
      </node>
      <node id="Cube_078" name="Cube.078" type="NODE">
        <matrix sid="transform">-4.37114e-11 -0.35 0 15.96 0.001 -1.5299e-8 0 -0.1 0 0 0.35 3.341213 0 0 0 1</matrix>
        <instance_geometry url="#Cube_145-mesh" name="Cube.078"/>
      </node>
      <node id="Cube_075" name="Cube.075" type="NODE">
        <matrix sid="transform">-4.37114e-11 -0.35 0 16.72 0.001 -1.5299e-8 0 -0.1 0 0 0.35 3.341213 0 0 0 1</matrix>
        <instance_geometry url="#Cube_142-mesh" name="Cube.075"/>
      </node>
      <node id="Cube_073" name="Cube.073" type="NODE">
        <matrix sid="transform">0.001 0 0 7.461829 0 0.39 0 2.033563 0 0 0.39 1.441059 0 0 0 1</matrix>
        <instance_geometry url="#Cube_136-mesh" name="Cube.073"/>
      </node>
      <node id="Cube_071" name="Cube.071" type="NODE">
        <matrix sid="transform">0.001 0 0 7.461829 0 0.39 0 1.128595 0 0 0.39 1.441059 0 0 0 1</matrix>
        <instance_geometry url="#Cube_134-mesh" name="Cube.071"/>
      </node>
      <node id="Cube_070" name="Cube.070" type="NODE">
        <matrix sid="transform">-4.37114e-11 -0.5131835 0 3.63412 0.001 -2.2432e-8 0 2.95383 0 0 0.4649985 1.53004 0 0 0 1</matrix>
        <instance_geometry url="#Cube_139-mesh" name="Cube.070"/>
      </node>
      <node id="Cube_067" name="Cube.067" type="NODE">
        <matrix sid="transform">-4.37114e-11 0.568185 0 5.909131 -0.001 -2.48362e-8 0 2.95383 0 0 0.4699985 1.53004 0 0 0 1</matrix>
        <instance_geometry url="#Cube_032-mesh" name="Cube.067"/>
      </node>
    </visual_scene>
  </library_visual_scenes>
  <scene>
    <instance_visual_scene url="#Scene"/>
  </scene>
</COLLADA>